# Exported from /tmp/growbot_visual_export.blend: head
v -5.11612863e-10 1.65214183e-13 0.0366447493
v -4.78904527e-10 2.1210594e-12 0.029605059
v -0.0181004759 4.26131e-13 0.0268786289
v -0.0202260073 -1.97123542e-17 0.0334677063
v -0.0270892736 -3.62017828e-18 0.0188820641
v -0.0302703567 -3.29309515e-18 0.023577204
v -0.0357063226 0 0.00836535078
v -0.0319539793 0 0.00670673558
v -0.032579992 0 0
v -0.0364058502 0 0
v -0.0319539793 -7.01330123e-20 -0.00670537865
v -0.0357063226 0 -0.00836535078
v -0.0302703567 -9.19796882e-18 -0.0231605712
v -0.0270892736 -8.86872613e-18 -0.0185896922
v -4.98835251e-10 2.12105355e-12 -0.0295258574
v -5.42489442e-10 1.6521028e-13 -0.0363942944
v -0.00696595898 0.00212600362 0.0368874893
v -0.00623391289 0.00204522396 0.0297651831
v -0.0136642205 0.00417030649 0.0359545946
v -0.0122282598 0.00401185174 0.0289516356
v -0.0198373701 0.00605434738 0.0335252658
v -0.0177526809 0.00582430605 0.0269292071
v -0.0252481811 0.007705722 0.0294052698
v -0.0225948747 0.00741293514 0.0235741474
v -0.0296887197 0.00906097051 0.0236106943
v -0.0265687592 0.00871669035 0.0189098716
v -0.0329883397 0.0100680105 0.0164081957
v -0.0295216236 0.00968546607 0.013149525
v -0.0313399881 0.0102820368 0.00670673558
v -0.0350202322 0.0106881429 0.00836535078
v -0.0319539793 0.0104834735 0
v -0.0357063226 0.0108975368 0
v -0.0350202322 0.0106881429 -0.00836535078
v -0.0313399881 0.0102820368 -0.00670333626
v -0.0329883397 0.0100680105 -0.016300356
v -0.0295216236 0.00968546607 -0.0130343279
v -0.0265687592 0.00871669035 -0.0185369495
v -0.0296887197 0.00906097051 -0.0231576283
v -0.0225948747 0.00741293514 -0.0229173992
v -0.0252481829 0.007705722 -0.0285596326
v -0.0177526809 0.00582430605 -0.026074335
v -0.019837372 0.00605434692 -0.0324030146
v -0.0136642205 0.00417030649 -0.0348057486
v -0.0122282598 0.00401185174 -0.028085338
v -0.00623391289 0.00204522396 -0.0291559622
v -0.00696595898 0.00212600362 -0.0360312574
v -0.00656178966 0.00417030603 0.0369054675
v -0.00587221654 0.0040118508 0.0297839623
v -0.0128714135 0.00818035007 0.0360114202
v -0.0115187708 0.00786952954 0.0289221648
v -0.0186863914 0.011876029 0.033529032
v -0.0167226568 0.0114247873 0.0268423147
v -0.0237832665 0.015115317 0.0293266196
v -0.0212839041 0.0145409955 0.0234346408
v -0.0279661603 0.0177737307 0.0234844442
v -0.0250272211 0.0170984007 0.0187571868
v -0.0310743358 0.0197491124 0.0162981022
v -0.0278087612 0.0189987253 0.0130332783
v -0.0329883397 0.0209655464 0.00834131707
v -0.0295216236 0.0201689396 0.00667319493
v -0.0336346179 0.0213762857 2.96469169e-11
v -0.0300999861 0.0205640737 6.63352984e-11
v -0.0329883397 0.0209655464 -0.00828238297
v -0.0295216236 0.0201689396 -0.0066120564
v -0.0310743358 0.0197491124 -0.0160937235
v -0.0278087612 0.0189987253 -0.012836732
v -0.0279661603 0.0177737307 -0.0229012463
v -0.0250272211 0.0170984007 -0.0182775594
v -0.0237832684 0.015115316 -0.0283297095
v -0.0212839041 0.0145409955 -0.02265523
v -0.0186863933 0.011876028 -0.0322443172
v -0.0167226568 0.0114247873 -0.0258586146
v -0.0128714144 0.00818035007 -0.0347196572
v -0.0115187708 0.00786952954 -0.0279390849
v -0.00656179013 0.00417030603 -0.0359973572
v -0.00587221654 0.0040118508 -0.0290823933
v -0.00590545358 0.00605434598 0.0369220488
v -0.00528485514 0.00582430512 0.0297576357
v -0.0115839671 0.011876028 0.0359526128
v -0.0103666186 0.0114247864 0.0288116764
v -0.0150499931 0.016586218 0.0265981853
v -0.016817309 0.0172413196 0.0333020389
v -0.0191550087 0.0211102534 0.0230623335
v -0.0214043744 0.0219440386 0.0289151873
v -0.0225239042 0.0248230286 0.0183340199
v -0.0251688771 0.0258034561 0.0229764059
v -0.0250272229 0.0275818724 0.0126976473
v -0.0279661622 0.0286712665 0.0158949904
v -0.0265687592 0.0292807631 0.00653097127
v -0.0296887197 0.0304372571 0.00817841478
v -0.0270892717 0.0298544075 2.41416442e-10
v -0.030270353 0.0310335588 1.74756029e-10
v -0.0296887197 0.0304372571 -0.00809925236
v -0.0265687592 0.0292807631 -0.00645556673
v -0.0250272229 0.0275818724 -0.0125032375
v -0.0279661641 0.0286712665 -0.0156828668
v -0.0225239042 0.0248230286 -0.0178797897
v -0.0251688771 0.0258034561 -0.0224378146
v -0.0191550087 0.0211102534 -0.0222874451
v -0.0214043744 0.0219440386 -0.0279426575
v -0.015049994 0.016586218 -0.0255881846
v -0.016817309 0.0172413196 -0.0320011452
v -0.0103666186 0.0114247864 -0.0277802143
v -0.0115839671 0.011876028 -0.0346065089
v -0.00528485561 0.00582430512 -0.029011758
v -0.00590545358 0.00605434598 -0.0359611437
v -0.0044943993 0.00741293421 0.0297084134
v -0.00502217561 0.00770572014 0.0369013958
v -0.00881608203 0.0145409955 0.0286462158
v -0.00985135231 0.015115316 0.0358011872
v -0.0143019455 0.0219440367 0.0329238437
v -0.0127989668 0.0211102515 0.0262552332
v -0.0182029251 0.0279294644 0.0283011459
v -0.0162899978 0.0268682558 0.0225538816
v -0.019155005 0.0315937214 0.0177667215
v -0.0214043707 0.0328415707 0.0222526845
v -0.0237832665 0.0364915989 0.0153708551
v -0.0212839041 0.0351050645 0.0122897951
v -0.0252481792 0.0387392789 0.00794881862
v -0.022594871 0.0372673422 0.00634920318
v -0.0230375286 0.0379974544 4.27410773e-10
v -0.0257428158 0.0394982249 3.50897256e-10
v -0.022594871 0.0372673422 -0.00629957765
v -0.0252481792 0.0387392789 -0.00790248439
v -0.0212839078 0.0351050608 -0.0121421656
v -0.0237832665 0.0364915989 -0.0152199622
v -0.0191550069 0.0315937176 -0.0174207333
v -0.0214043725 0.032841567 -0.0218674522
v -0.0162899978 0.0268682558 -0.0218647234
v -0.018202927 0.0279294625 -0.0274626408
v -0.0143019455 0.0219440367 -0.0317047909
v -0.0127989668 0.0211102497 -0.0252878163
v -0.00881608296 0.0145409936 -0.027618438
v -0.00985135231 0.015115316 -0.0344781354
v -0.0044943993 0.00741293421 -0.0289473161
v -0.00502217561 0.00770572014 -0.0359253474
v -0.00394589826 0.00906096864 0.0368464924
v -0.00353122735 0.00871668849 0.0296430793
v -0.00774015766 0.0177737307 0.0355969705
v -0.0069267517 0.0170984007 0.0284547452
v -0.0112369657 0.0258034579 0.0324824788
v -0.0100560822 0.0248230286 0.0258784294
v -0.0127989687 0.0315937214 0.0220122617
v -0.0143019473 0.0328415707 0.0276234783
v -0.0150499931 0.0371502861 0.0171965826
v -0.0168173052 0.0386175998 0.0215054136
v -0.0186863951 0.0429095775 0.0148677872
v -0.0167226586 0.0412791818 0.011914067
v -0.0198373683 0.0455525666 0.00772961928
v -0.0177526772 0.0438217521 0.00618417328
v -0.020225998 0.0464449972 5.18146637e-10
v -0.0198373683 0.0455525666 -0.0077443677
v -0.0177526772 0.0438217521 -0.00618105102
v -0.0186863951 0.0429095775 -0.0148364166
v -0.0167226586 0.0412791818 -0.0118557522
v -0.0150499931 0.0371502861 -0.0169768818
v -0.0168173052 0.0386175998 -0.0212944839
v -0.0143019473 0.0328415707 -0.0269663371
v -0.0127989687 0.0315937214 -0.0214456934
v -0.0112369666 0.0258034542 -0.0313962474
v -0.0100560831 0.0248230286 -0.0249907523
v -0.00692675263 0.0170984007 -0.0274666827
v -0.00774015812 0.0177737307 -0.0343493335
v -0.00353122735 0.00871668849 -0.0288923178
v -0.00394589826 0.00906096864 -0.0358928591
v -0.00271798158 0.0100680077 0.036766313
v -0.00243235123 0.0096854642 0.0295683835
v -0.00533151301 0.0197491106 0.035378553
v -0.00477122935 0.0189987253 0.0282662194
v -0.00774015626 0.0286712665 0.0320648365
v -0.00692674983 0.0275818706 0.0255334824
v -0.00881608389 0.0351050645 0.0215360411
v -0.00985135231 0.0364915989 0.0270159449
v -0.0115839597 0.0429095775 0.0208927635
v -0.010366613 0.0412791818 0.0167415105
v -0.0128714126 0.0476785712 -0.0145727415
v -0.0115839597 0.0429095775 -0.0208355915
v -0.010366613 0.0412791818 -0.0166348722
v -0.00881608389 0.0351050645 -0.0210895985
v -0.00985135231 0.0364915989 -0.0265346747
v -0.00692674983 0.0275818706 -0.0247366205
v -0.00774015626 0.0286712665 -0.0311245732
v -0.00477122935 0.0189987235 -0.0273409635
v -0.00533151301 0.0197491106 -0.0342380665
v -0.00271798158 0.0100680077 -0.0358666964
v -0.00243235123 0.0096854642 -0.0288499892
v -0.00124000164 0.0102820331 0.0294901598
v -0.00138561497 0.0106881401 0.0366686769
v -0.002432351 0.0201689377 0.0281050671
v -0.00271798135 0.0209655426 0.0351774693
v -0.00353122596 0.0292807557 0.0252766907
v -0.0039458964 0.0304372497 0.0317439213
v -0.00502217701 0.0387392752 0.0265901461
v -0.00449440116 0.0372673385 0.0212067682
v -0.00590545079 0.0455525629 0.0204877574
v -0.00590545079 0.0455525629 -0.0205584988
v -0.00449440116 0.0372673385 -0.0208474416
v -0.00502217701 0.0387392752 -0.0262394045
v -0.00353122619 0.0292807557 -0.0245641917
v -0.0039458964 0.0304372497 -0.0309376474
v -0.00243235147 0.0201689377 -0.0272574071
v -0.00271798135 0.0209655426 -0.0341622941
v -0.00138561497 0.0106881401 -0.0358496606
v -0.00124000176 0.0102820331 -0.0288232248
v -1.17530957e-10 0.0104834698 0.0294125713
v 7.50578488e-11 0.0108975321 0.0365592502
v 5.15059551e-10 0.02056407 0.0279864054
v 5.31760525e-10 0.021376282 0.0350127071
v 1.59138702e-09 0.0298543964 0.025143683
v 1.78605697e-09 0.0310335495 0.0315647833
v -4.94089103e-10 0.037997447 0.0210789945
v -5.53743995e-10 0.0394982211 0.0264200568
v 3.25493721e-09 0.046444986 0.0203414503
v 3.25493721e-09 0.046444986 -0.0204657745
v -4.94159491e-10 0.037997447 -0.0207598712
v -5.54613133e-10 0.0394982211 -0.0261337627
v 1.59148883e-09 0.0298543964 -0.0245029312
v 1.7822489e-09 0.0310335495 -0.0308709312
v 5.12977105e-10 0.02056407 -0.0272280648
v 5.19978338e-10 0.021376282 -0.0341353863
v 5.72632809e-11 0.0108975321 -0.0358437374
v -1.29335195e-10 0.0104834698 -0.0288140569
v 0.00124000199 0.0102820322 0.0293377694
v 0.00138561486 0.0106881391 0.0364411101
v 0.0024323524 0.0201689377 0.0279128328
v 0.00271798251 0.0209655426 0.0348873027
v 0.00353122875 0.0292807557 0.0251400061
v 0.00394589966 0.0304372478 0.0315332673
v 0.00502217514 0.0387392715 0.0265203696
v 0.0044943993 0.0372673348 0.0211645477
v 0.00590545638 0.0455525592 0.0204877574
v 0.00590545638 0.0455525592 -0.0205584988
v 0.00502217514 0.0387392715 -0.0262394045
v 0.0044943993 0.0372673348 -0.0208474416
v 0.00394589966 0.0304372478 -0.0309376456
v 0.00353122898 0.0292807557 -0.0245641954
v 0.00271798251 0.0209655426 -0.0341622941
v 0.00243235263 0.0201689377 -0.0272574071
v 0.00138561486 0.0106881391 -0.0358496569
v 0.00124000199 0.0102820322 -0.0288232248
v 0.00243235123 0.00968546234 0.0292660557
v 0.00271798135 0.0100680059 0.0363149755
v 0.00477122981 0.0189987235 0.0278743543
v 0.00533151347 0.0197491106 0.034788698
v 0.00774015859 0.0286712591 0.0316137858
v 0.00692675263 0.027581865 0.025238676
v 0.00985135138 0.0364915952 0.026832737
v 0.00881608203 0.0351050608 0.0214207098
v 0.0103666177 0.0412791781 0.0167415123
v 0.0115839662 0.04290957 0.0208927635
v 0.0128714107 0.0476785712 -0.0145727405
v 0.0115839662 0.04290957 -0.0208355933
v 0.0103666177 0.0412791781 -0.0166348722
v 0.00881608203 0.0351050608 -0.0210895985
v 0.00985135231 0.0364915952 -0.0265346747
v 0.00692675263 0.027581865 -0.0247366223
v 0.00774015859 0.0286712591 -0.0311245695
v 0.00477122981 0.0189987235 -0.0273409635
v 0.00533151347 0.0197491106 -0.0342380665
v 0.00243235123 0.00968546234 -0.0288499892
v 0.00271798135 0.0100680059 -0.0358666964
v 0.00353122619 0.00871668477 0.0291965827
v 0.00394589687 0.00906096492 0.0361801013
v 0.00774015812 0.0177737288 0.0346935764
v 0.0069267517 0.017098397 0.0278521553
v 0.010056084 0.0248230211 0.0253885165
v 0.0112369666 0.0258034486 0.0317401476
v 0.0143019455 0.032841567 0.0272485279
v 0.0127989678 0.0315937176 0.0217682477
v 0.016817309 0.0386175886 0.0214781612
v 0.0150499931 0.0371502787 0.0171811674
v 0.0167226568 0.0412791818 0.011914067
v 0.0186863914 0.0429095775 0.0148677872
v 0.0177526791 0.0438217409 0.00618417328
v 0.0198373701 0.0455525592 0.00772961974
v 0.0202260055 0.0464449748 5.18146359e-10
v 0.0177526791 0.0438217409 -0.00618105102
v 0.0198373701 0.0455525592 -0.0077443677
v 0.0167226568 0.0412791818 -0.0118557522
v 0.0186863914 0.0429095775 -0.0148364156
v 0.015049994 0.0371502787 -0.0169768818
v 0.016817309 0.0386175886 -0.0212944839
v 0.0127989678 0.0315937176 -0.0214456934
v 0.0143019455 0.032841567 -0.0269663371
v 0.0112369666 0.0258034486 -0.0313962437
v 0.010056084 0.0248230211 -0.0249907523
v 0.00692675263 0.017098397 -0.0274666846
v 0.00774015859 0.0177737288 -0.0343493298
v 0.00353122619 0.00871668477 -0.0288923178
v 0.00394589687 0.00906096492 -0.0358928554
v 0.00502217375 0.00770571688 0.0360356234
v 0.0044943979 0.00741293095 0.0291283447
v 0.00881608203 0.014540989 0.0278251879
v 0.00985135231 0.0151153104 0.0345759317
v 0.0143019455 0.0219440274 0.0318359062
v 0.0127989678 0.0211102422 0.0255299099
v 0.0182029232 0.0279294606 0.0276416428
v 0.016289996 0.0268682539 0.0221147761
v 0.019155005 0.0315937139 0.0176422875
v 0.0214043707 0.0328415595 0.0220693815
v 0.0212839004 0.0351050645 0.0122897951
v 0.0237832628 0.0364915989 0.0153708551
v 0.0252481792 0.0387392677 0.00794881955
v 0.022594871 0.037267331 0.00634920318
v 0.0212839022 0.0351050608 -0.0121421656
v 0.0237832628 0.0364915989 -0.0152199622
v 0.0191550069 0.0315937102 -0.0174207315
v 0.0214043725 0.0328415558 -0.0218674541
v 0.016289996 0.0268682521 -0.0218647234
v 0.0182029232 0.0279294588 -0.0274626408
v 0.0143019455 0.0219440274 -0.0317047946
v 0.0127989678 0.0211102422 -0.0252878163
v 0.00881608296 0.014540989 -0.0276184417
v 0.00985135231 0.0151153104 -0.0344781317
v 0.00502217375 0.00770571688 -0.0359253474
v 0.0044943979 0.00741293095 -0.0289473161
v 0.00590545125 0.00605434319 0.0358819179
v 0.00528485281 0.00582430186 0.0290611908
v 0.0103666149 0.0114247818 0.0277775582
v 0.0115839643 0.0118760234 0.0344160236
v 0.0168173071 0.0172413085 0.0318372659
v 0.0150499931 0.0165862069 0.0256124344
v 0.0214043725 0.0219440348 0.0278977621
v 0.0191550069 0.0211102497 0.0223742984
v 0.0251688752 0.0258034486 0.0225234758
v 0.0225239005 0.0248230211 0.0180188287
v 0.0250272211 0.0275818724 0.0126556838
v 0.0279661566 0.0286712665 0.0158441029
v 0.0296887159 0.0304372441 0.00817841478
v 0.0265687574 0.0292807482 0.00653097173
v 0.0250272211 0.0275818724 -0.0125032375
v 0.0279661603 0.0286712665 -0.0156828668
v 0.0225239005 0.0248230211 -0.0178797878
v 0.0251688752 0.0258034486 -0.0224378165
v 0.0191550069 0.0211102497 -0.0222874451
v 0.0214043725 0.0219440367 -0.0279426575
v 0.0168173052 0.0172413103 -0.0320011452
v 0.0150499931 0.0165862069 -0.0255881846
v 0.0115839643 0.0118760234 -0.0346065089
v 0.0103666149 0.0114247818 -0.0277802143
v 0.00590545125 0.00605434319 -0.0359611437
v 0.00528485281 0.00582430186 -0.029011758
v 0.00587221375 0.00401184848 0.0289963167
v 0.00656178501 0.00417030323 0.0357272774
v 0.0128714107 0.00818034541 0.0342069939
v 0.0115187662 0.00786952488 0.0277036354
v 0.0186863896 0.0118760178 0.0317109562
v 0.0167226531 0.0114247771 0.0256090406
v 0.0237832647 0.0151153123 0.027942773
v 0.0212839022 0.0145409917 0.0224881973
v 0.0279661547 0.0177737214 0.0227289163
v 0.0250272192 0.0170983896 0.0182259325
v 0.0310743283 0.0197491124 0.0161004197
v 0.0278087575 0.0189987253 0.0128744012
v 0.0329883322 0.0209655333 0.00833812729
v 0.029521618 0.0201689266 0.00666612433
v 0.0278087575 0.0189987253 -0.012836732
v 0.0310743283 0.0197491124 -0.0160937235
v 0.0250272192 0.0170983896 -0.0182775594
v 0.0279661547 0.0177737214 -0.0229012463
v 0.0212839022 0.0145409917 -0.02265523
v 0.0237832647 0.0151153123 -0.0283297077
v 0.0167226531 0.011424778 -0.0258586146
v 0.0186863896 0.0118760178 -0.0322443135
v 0.0128714107 0.00818034541 -0.0347196572
v 0.0115187662 0.00786952488 -0.0279390849
v 0.00587221375 0.00401184848 -0.0290823933
v 0.00656178501 0.00417030323 -0.0359973535
v 0.00623390777 0.00204522233 0.0289204847
v 0.00696595386 0.00212600199 0.035618525
v 0.0122282552 0.00401184708 0.0276077315
v 0.0136642158 0.0041703023 0.0339684598
v 0.0177526735 0.00582429813 0.0255180467
v 0.0198373627 0.00605433853 0.0314581245
v 0.0252481811 0.00770571921 0.0277524889
v 0.022594871 0.00741293421 0.0224336945
v 0.0296887103 0.00906096213 0.0226243474
v 0.0265687518 0.00871668197 0.0182103347
v 0.029521618 0.00968546607 0.0128771858
v 0.0329883322 0.0100680105 0.0160627682
v 0.0350202248 0.0106881326 0.00833850261
v 0.0313399807 0.0102820257 0.00667402567
v 0.0329883322 0.0100680105 -0.016300356
v 0.029521618 0.00968546607 -0.0130343279
v 0.0296887103 0.00906096213 -0.0231576283
v 0.0265687518 0.00871668197 -0.0185369495
v 0.022594871 0.00741293421 -0.0229173992
v 0.0252481792 0.00770572014 -0.0285596307
v 0.0177526735 0.00582429813 -0.0260743331
v 0.0198373627 0.00605433853 -0.0324030109
v 0.0122282552 0.00401184708 -0.028085338
v 0.0136642158 0.0041703023 -0.0348057449
v 0.00623390777 0.00204522233 -0.0291559603
v 0.00696595386 0.00212600199 -0.0360312574
v 0.00635603722 -3.98787281e-10 0.0288422313
v 0.00710242474 -4.16061824e-10 0.0355732813
v 0.0124678211 -2.80145507e-09 0.0274993815
v 0.0139319142 -2.91324476e-09 0.0338668674
v 0.020225998 -5.41035838e-09 0.0313128345
v 0.0181004666 -5.20434984e-09 0.0254087355
v 0.0230375323 -8.00734534e-10 0.0223294739
v 0.0257428214 -8.32362901e-10 0.0276015718
v 0.0270892642 -5.60515501e-09 0.018123474
v 0.0302703474 -5.82654014e-09 0.0225082505
v 0.0300999805 1.60147284e-09 0.0128289564
v 0.0336346105 1.6647258e-09 0.016002208
v 0.0357063115 -7.49126627e-09 0.00832469575
v 0.0319539681 -7.20662818e-09 0.00666060345
v 0.0300999805 1.60147284e-09 -0.0130482754
v 0.0336346105 1.6647258e-09 -0.0162919313
v 0.0302703474 -5.82654014e-09 -0.0231605694
v 0.0270892642 -5.60515501e-09 -0.0185896922
v 0.0257428195 -8.32362901e-10 -0.0285855029
v 0.0230375305 -8.00734534e-10 -0.0230238084
v 0.020225998 -5.41035838e-09 -0.0324467272
v 0.0181004666 -5.20434984e-09 -0.0262113381
v 0.0124678211 -2.80145507e-09 -0.0282090418
v 0.0139319142 -2.91324476e-09 -0.0348520763
v 0.00635603722 -3.98787281e-10 -0.0292288829
v 0.00710242474 -4.16061824e-10 -0.0360598974
v 0.00696595339 -0.00212600268 0.0355628096
v 0.00623390777 -0.00204522302 0.0287808161
v 0.0136642158 -0.00417030789 0.0338606723
v 0.0122282552 -0.00401185313 0.0274053663
v 0.0198373608 -0.00605434878 0.0313259996
v 0.0177526716 -0.00582430791 0.0253158268
v 0.0252481792 -0.00770572014 0.0276372749
v 0.0225948691 -0.00741293514 0.0222706217
v 0.0296887085 -0.00906097237 0.0225578602
v 0.0265687499 -0.00871669222 0.0181107689
v 0.0295216162 -0.00968546234 0.0128417267
v 0.0329883285 -0.0100680059 0.0160455685
v 0.035020221 -0.0106881475 0.00833850261
v 0.0313399807 -0.0102820406 0.00667075533
v 0.0329883285 -0.0100680059 -0.016300356
v 0.0295216162 -0.00968546234 -0.0130343279
v 0.0265687499 -0.00871669222 -0.0185369477
v 0.0296887085 -0.00906097237 -0.0231576283
v 0.0225948691 -0.00741293514 -0.0229173992
v 0.0252481773 -0.00770572107 -0.0285596307
v 0.0198373608 -0.00605434878 -0.0324030109
v 0.0177526716 -0.00582430791 -0.0260743331
v 0.0122282552 -0.00401185313 -0.028085338
v 0.0136642158 -0.00417030789 -0.0348057449
v 0.00696595339 -0.00212600268 -0.0360312574
v 0.00623390777 -0.00204522302 -0.0291559603
v 0.00587221282 -0.00401184848 0.0287386347
v 0.00656178407 -0.00417030323 0.0355782844
v 0.0128714107 -0.00818035007 0.0338810682
v 0.0115187652 -0.00786952954 0.0273327865
v 0.0186863821 -0.0118760262 0.0313179083
v 0.0167226475 -0.0114247855 0.0252082255
v 0.0237832628 -0.0151153142 0.0275731441
v 0.0212839004 -0.0145409917 0.0221286435
v 0.027966151 -0.0177737307 0.0224457346
v 0.0250272136 -0.0170984007 0.017956946
v 0.0310743265 -0.019749105 0.0159340799
v 0.0278087556 -0.0189987179 0.0127153918
v 0.0329883248 -0.0209655464 0.00827939715
v 0.0295216143 -0.0201689396 0.00660531549
v 0.0310743265 -0.019749105 -0.0160937235
v 0.0278087556 -0.0189987179 -0.012836732
v 0.0250272136 -0.0170984007 -0.0182775576
v 0.027966151 -0.0177737307 -0.0229012463
v 0.0212839004 -0.0145409917 -0.02265523
v 0.0237832628 -0.0151153142 -0.0283297077
v 0.0167226456 -0.0114247855 -0.0258586146
v 0.0186863821 -0.0118760262 -0.0322443098
v 0.0115187652 -0.00786952954 -0.0279390849
v 0.0128714107 -0.00818035007 -0.0347196534
v 0.00587221282 -0.00401184848 -0.0290823933
v 0.00656178407 -0.00417030323 -0.0359973535
v 0.00528485188 -0.00582430139 0.0287155043
v 0.00590544986 -0.00605434226 0.035614945
v 0.010366613 -0.0114247855 0.0272751264
v 0.0115839615 -0.0118760262 0.0339148976
v 0.0168172978 -0.0172413159 0.0312727131
v 0.0150499828 -0.0165862124 0.0250776056
v 0.019155005 -0.0211102497 0.0219098814
v 0.0214043707 -0.0219440367 0.0273953341
v 0.0251688696 -0.0258034524 0.0221584309
v 0.0225238968 -0.0248230249 0.0176858902
v 0.0279661566 -0.0286712553 0.0156354643
v 0.0250272192 -0.0275818612 0.0124645485
v 0.0265687481 -0.0292807594 0.0064555672
v 0.0296887066 -0.0304372534 0.00809925329
v 0.0279661566 -0.0286712553 -0.0156828668
v 0.0250272192 -0.0275818612 -0.0125032384
v 0.0251688696 -0.0258034524 -0.0224378146
v 0.0225238968 -0.0248230249 -0.0178797878
v 0.0214043707 -0.0219440367 -0.0279426575
v 0.019155005 -0.0211102497 -0.0222874451
v 0.0168172978 -0.0172413159 -0.0320011452
v 0.0150499819 -0.0165862143 -0.0255881827
v 0.0115839615 -0.0118760262 -0.0346065089
v 0.010366613 -0.0114247855 -0.0277802143
v 0.00590544986 -0.00605434226 -0.0359611399
v 0.00528485188 -0.00582430139 -0.029011758
v 0.0044943965 -0.00741292909 0.0287102554
v 0.00502217142 -0.00770571548 0.0356686674
v 0.00985134766 -0.0151153142 0.0339505859
v 0.00881608017 -0.0145409899 0.027225988
v 0.0127989566 -0.0211102441 0.0249191318
v 0.0143019343 -0.0219440293 0.0311794784
v 0.0162899941 -0.0268682502 0.0216264781
v 0.0182029214 -0.0279294569 0.0271132011
v 0.0214043632 -0.0328415595 0.0217412692
v 0.0191549975 -0.0315937139 0.0173359159
v 0.0212839004 -0.0351050533 0.0121421665
v 0.023783261 -0.0364915878 0.0152199632
v 0.025248168 -0.0387392715 0.00790248532
v 0.0225948617 -0.0372673348 0.00629957905
v 0.0212839004 -0.0351050533 -0.0121421656
v 0.023783261 -0.0364915878 -0.0152199622
v 0.0191549975 -0.0315937139 -0.0174207296
v 0.0214043632 -0.0328415595 -0.0218674522
v 0.0162899941 -0.0268682502 -0.0218647197
v 0.0182029214 -0.0279294569 -0.0274626389
v 0.0127989566 -0.0211102441 -0.0252878126
v 0.0143019343 -0.0219440293 -0.0317047909
v 0.00881608017 -0.0145409899 -0.027618438
v 0.00985134766 -0.0151153142 -0.0344781354
v 0.0044943965 -0.00741292909 -0.0289473161
v 0.00502217142 -0.00770571548 -0.0359253474
v 0.00394589454 -0.00906096306 0.0357366651
v 0.00353122409 -0.00871668197 0.0287220515
v 0.00692674937 -0.0170983952 0.027186716
v 0.00774015486 -0.0177737288 0.0339868478
v 0.0100560747 -0.0248230174 0.0247474946
v 0.0112369563 -0.0258034449 0.0310527924
v 0.0143019436 -0.0328415632 0.0267721638
v 0.012798965 -0.0315937139 0.0213153344
v 0.0150499847 -0.0371502787 0.01696321
v 0.0168172978 -0.0386175886 0.0212695021
v 0.0167226531 -0.0412791744 0.011855755
v 0.0186863896 -0.0429095663 0.0148364166
v 0.0198373571 -0.0455525592 0.00774436956
v 0.017752666 -0.0438217409 0.00618105289
v 0.0202259775 -0.0464449748 4.95331276e-10
v 0.0198373571 -0.0455525592 -0.0077443677
v 0.017752666 -0.0438217409 -0.00618105102
v 0.0167226531 -0.0412791744 -0.0118557522
v 0.0186863896 -0.0429095663 -0.0148364156
v 0.0168172978 -0.0386175886 -0.0212944839
v 0.0150499847 -0.0371502787 -0.0169768799
v 0.012798965 -0.0315937139 -0.0214456934
v 0.0143019436 -0.0328415632 -0.0269663371
v 0.0100560747 -0.0248230174 -0.0249907523
v 0.0112369563 -0.0258034449 -0.0313962437
v 0.00774015486 -0.0177737288 -0.0343493298
v 0.00692674937 -0.0170983952 -0.027466679
v 0.00394589454 -0.00906096306 -0.0358928554
v 0.00353122409 -0.00871668197 -0.0288923178
v 0.00243234914 -0.00968545768 0.0287509169
v 0.00271797902 -0.0100680022 0.0358176231
v 0.00477122609 -0.0189987198 0.027167188
v 0.00533151021 -0.019749105 0.0340332501
v 0.00774014788 -0.028671246 0.0309316274
v 0.00692674285 -0.0275818538 0.0245953444
v 0.00985135045 -0.0364915915 0.0264448561
v 0.0088160811 -0.0351050571 0.0210302211
v 0.0103666084 -0.0412791707 0.016634874
v 0.011583955 -0.0429095626 0.0208355933
v 0.0128714079 -0.0476785563 0.0145727433
v 0.0128714079 -0.0476785563 -0.0145727405
v 0.011583955 -0.0429095626 -0.0208355896
v 0.0103666084 -0.0412791707 -0.0166348722
v 0.0088160811 -0.0351050571 -0.0210895985
v 0.00985135045 -0.0364915915 -0.0265346728
v 0.00692674285 -0.0275818538 -0.0247366168
v 0.00774014788 -0.028671246 -0.0311245695
v 0.00477122609 -0.0189987198 -0.0273409635
v 0.00533151021 -0.019749105 -0.0342380665
v 0.00243234914 -0.00968545768 -0.0288499892
v 0.00271797902 -0.0100680022 -0.0358666964
v 0.001385613 -0.0106881335 0.0359112658
v 0.00124000013 -0.0102820266 0.0287974812
v 0.00243234937 -0.0201689303 0.0271821357
v 0.00271797902 -0.0209655371 0.0341058262
v 0.00394589035 -0.0304372311 0.0308663975
v 0.0035312206 -0.0292807389 0.0245034322
v 0.00502217421 -0.0387392677 0.0262110196
v 0.00449439883 -0.037267331 0.0208281241
v 0.00590544567 -0.045552548 0.0205584988
v 0.00590544567 -0.045552548 -0.0205584969
v 0.00502217421 -0.0387392677 -0.0262394045
v 0.00449439883 -0.037267331 -0.0208474416
v 0.00394589035 -0.0304372311 -0.0309376456
v 0.0035312206 -0.0292807389 -0.0245641917
v 0.00271797902 -0.0209655371 -0.0341622941
v 0.00243234937 -0.0201689303 -0.0272574071
v 0.00124000013 -0.0102820266 -0.0288232248
v 0.001385613 -0.0106881335 -0.0358496606
v -9.6438002e-10 -0.0104834633 0.0288623143
v -1.00967179e-09 -0.0108975256 0.036017485
v -1.912974e-09 -0.0205640607 0.0272456091
v -2.1779849e-09 -0.0213762745 0.0342206098
v -4.95067365e-09 -0.0298543796 0.0245089103
v -5.53484858e-09 -0.031033529 0.030903196
v -9.79627157e-10 -0.0379974395 0.0207621884
v -1.09573028e-09 -0.0394982137 0.0261412449
v -5.96738436e-09 -0.0464449748 0.0204657763
v -5.96738436e-09 -0.0464449748 -0.0204657745
v -1.09710274e-09 -0.0394982137 -0.0261337627
v -9.8046482e-10 -0.0379974395 -0.0207598694
v -5.54135937e-09 -0.031033529 -0.0308709294
v -4.95475527e-09 -0.0298543796 -0.0245029349
v -1.92092342e-09 -0.0205640607 -0.0272280648
v -2.1924691e-09 -0.0213762745 -0.0341353826
v -1.02771558e-09 -0.0108975256 -0.0358437374
v -9.78186421e-10 -0.0104834633 -0.0288140532
v -0.00138561497 -0.0106881326 0.0361353867
v -0.00124000211 -0.0102820257 0.0289451331
v -0.00243235286 -0.0201689284 0.0273658354
v -0.00271798251 -0.0209655371 0.0343875363
v -0.00394590106 -0.0304372273 0.0310696866
v -0.00353123015 -0.0292807352 0.0246334523
v -0.00449440069 -0.0372673273 0.0208680332
v -0.00502217608 -0.038739264 0.0262783766
v -0.00590545777 -0.0455525406 0.0205584988
v -0.00590545777 -0.0455525406 -0.0205584969
v -0.00449440069 -0.0372673273 -0.0208474416
v -0.00502217608 -0.038739264 -0.0262394045
v -0.00353123015 -0.0292807352 -0.0245641917
v -0.00394590106 -0.0304372273 -0.0309376456
v -0.00271798274 -0.0209655371 -0.0341622941
v -0.00243235286 -0.0201689284 -0.0272574071
v -0.00124000211 -0.0102820257 -0.0288232248
v -0.00138561497 -0.0106881326 -0.0358496606
v -0.00271798065 -0.0100680003 0.0362625606
v -0.00243235053 -0.00968545582 0.0290442128
v -0.00533151301 -0.0197491031 0.0346065722
v -0.00477122935 -0.018998716 0.0275421701
v -0.00774015673 -0.0286712367 0.0313669257
v -0.00692675076 -0.0275818445 0.0248759501
v -0.00985135045 -0.0364915878 0.0266213119
v -0.00881608203 -0.0351050533 0.0211395342
v -0.0103666149 -0.0412791595 0.016634874
v -0.0115839634 -0.0429095514 0.0208355933
v -0.012871406 -0.0476785526 0.0145727415
v -0.012871406 -0.0476785526 -0.0145727405
v -0.0115839634 -0.0429095514 -0.0208355915
v -0.0103666149 -0.0412791595 -0.0166348722
v -0.00985135045 -0.0364915878 -0.0265346728
v -0.00881608203 -0.0351050533 -0.0210895985
v -0.00774015673 -0.0286712367 -0.0311245695
v -0.00692675076 -0.0275818445 -0.0247366205
v -0.00533151301 -0.0197491013 -0.0342380665
v -0.00477122935 -0.018998716 -0.0273409616
v -0.00271798065 -0.0100680003 -0.0358666964
v -0.00243235077 -0.00968545582 -0.0288499892
v -0.00394589594 -0.00906096026 0.0363946594
v -0.00353122572 -0.00871668011 0.0291561391
v -0.00774015673 -0.0177737214 0.0348667838
v -0.0069267503 -0.0170983896 0.027764814
v -0.0100560812 -0.0248230007 0.0252145771
v -0.0112369638 -0.0258034281 0.0317698307
v -0.0127989668 -0.0315937139 0.0215471275
v -0.0143019455 -0.0328415595 0.0271327496
v -0.0150499931 -0.0371502601 0.0169768836
v -0.0168173052 -0.0386175737 0.0212946422
v -0.0167226531 -0.0412791707 0.0118557541
v -0.0186863877 -0.0429095626 0.0148364166
v -0.0177526791 -0.0438217223 0.00618105289
v -0.0198373701 -0.0455525368 0.00774436956
v -0.0202259999 -0.0464449376 4.95331165e-10
v -0.0198373701 -0.0455525368 -0.0077443677
v -0.0177526791 -0.0438217223 -0.00618105102
v -0.0186863877 -0.0429095626 -0.0148364156
v -0.0167226531 -0.0412791707 -0.0118557522
v -0.0168173052 -0.0386175737 -0.0212944839
v -0.0150499931 -0.0371502601 -0.0169768818
v -0.0127989668 -0.0315937139 -0.0214456934
v -0.0143019455 -0.0328415595 -0.0269663371
v -0.0100560812 -0.0248230007 -0.0249907486
v -0.0112369647 -0.0258034281 -0.0313962437
v -0.0069267503 -0.0170983896 -0.0274666827
v -0.00774015673 -0.0177737214 -0.0343493298
v -0.0039458964 -0.00906096026 -0.0358928554
v -0.00353122572 -0.00871668011 -0.0288923178
v -0.00502217235 -0.00770571269 0.0365254655
v -0.00449439744 -0.00741292676 0.0292759389
v -0.00881608017 -0.0145409871 0.0280168001
v -0.00985134766 -0.0151153076 0.0351479873
v -0.0127989603 -0.0211102255 0.0256130267
v -0.0143019399 -0.0219440088 0.0322330892
v -0.0162899941 -0.0268682428 0.0220449325
v -0.0182029214 -0.0279294532 0.0277480222
v -0.0191550031 -0.0315936916 0.0174520016
v -0.0214043688 -0.0328415409 0.0219142027
v -0.0212838985 -0.0351050496 0.0121421665
v -0.0237832554 -0.036491584 0.0152199622
v -0.0225948673 -0.0372673124 0.00629957905
v -0.0252481755 -0.0387392491 0.00790248532
v -0.0230375193 -0.0379973948 4.27410912e-10
v -0.0257428084 -0.0394981652 3.50897533e-10
v -0.0225948673 -0.0372673124 -0.00629957765
v -0.0252481755 -0.0387392491 -0.00790248439
v -0.0237832554 -0.036491584 -0.0152199613
v -0.0212838985 -0.0351050496 -0.0121421656
v -0.0214043688 -0.0328415409 -0.0218674522
v -0.0191550031 -0.0315936916 -0.0174207315
v -0.0162899941 -0.0268682428 -0.0218647178
v -0.0182029214 -0.0279294532 -0.0274626389
v -0.0127989613 -0.0211102255 -0.0252878126
v -0.0143019399 -0.0219440088 -0.0317047909
v -0.00881608017 -0.0145409871 -0.027618438
v -0.00985134766 -0.0151153076 -0.0344781317
v -0.00502217235 -0.00770571269 -0.0359253474
v -0.00449439744 -0.00741292676 -0.0289473161
v -0.00590544939 -0.00605433946 0.0366472788
v -0.00528485095 -0.0058242986 0.029397456
v -0.010366614 -0.011424778 0.0282769818
v -0.0115839606 -0.0118760187 0.0354237445
v -0.0168172996 -0.0172412936 0.0326986201
v -0.0150499847 -0.0165861938 0.0260264184
v -0.019155005 -0.0211102441 0.0225695968
v -0.0214043707 -0.0219440293 0.0283793416
v -0.0251688696 -0.0258034337 0.0225927588
v -0.0225238968 -0.0248230062 0.0179862808
v -0.0279661529 -0.0286712535 0.0156828668
v -0.0250272136 -0.0275818575 0.0125035364
v -0.0296887085 -0.0304372273 0.00809925329
v -0.0265687499 -0.0292807352 0.0064555672
v -0.0302703343 -0.0310335029 1.74756112e-10
v -0.0270892512 -0.0298543535 2.41416442e-10
v -0.0265687499 -0.0292807352 -0.00645556673
v -0.0296887085 -0.0304372273 -0.00809925236
v -0.0250272136 -0.0275818575 -0.0125032375
v -0.0279661529 -0.0286712535 -0.0156828668
v -0.0251688696 -0.0258034337 -0.0224378165
v -0.0225238968 -0.0248230062 -0.0178797878
v -0.0214043707 -0.0219440293 -0.0279426556
v -0.019155005 -0.0211102441 -0.0222874433
v -0.0168172996 -0.0172412936 -0.0320011452
v -0.0150499847 -0.0165861938 -0.0255881827
v -0.010366614 -0.011424778 -0.0277802106
v -0.0115839606 -0.0118760187 -0.0346065089
v -0.00590544939 -0.00605433946 -0.0359611437
v -0.00528485142 -0.0058242986 -0.029011758
v -0.00656178314 -0.0041703009 0.0367515609
v -0.00587221188 -0.00401184615 0.0295138676
v -0.0115187643 -0.00786952302 0.0285227932
v -0.012871407 -0.00818034261 0.0356643461
v -0.0167226437 -0.0114247641 0.0264068116
v -0.0186863765 -0.0118760047 0.03310268
v -0.0212839004 -0.014540989 0.0230460539
v -0.0237832628 -0.0151153095 0.0289248023
v -0.0250272099 -0.0170983784 0.0184711087
v -0.0279661473 -0.0177737083 0.0231807865
v -0.02780875 -0.0189987142 0.0128682535
v -0.0310743228 -0.0197491013 0.0161249954
v -0.0295216106 -0.0201689135 0.0066120564
v -0.0329883248 -0.0209655203 0.00828238297
v -0.0336345881 -0.0213762373 2.96469654e-11
v -0.03009996 -0.0205640271 6.63352082e-11
v -0.0329883248 -0.0209655203 -0.00828238297
v -0.0295216106 -0.0201689135 -0.0066120564
v -0.0310743228 -0.0197491013 -0.0160937235
v -0.02780875 -0.0189987142 -0.012836732
v -0.0279661473 -0.0177737083 -0.0229012463
v -0.0250272099 -0.0170983784 -0.0182775576
v -0.0237832647 -0.0151153095 -0.0283297077
v -0.0212839004 -0.014540989 -0.02265523
v -0.0186863784 -0.0118760038 -0.0322443098
v -0.0167226437 -0.0114247641 -0.0258586127
v -0.0128714079 -0.00818034261 -0.0347196534
v -0.0115187643 -0.00786952302 -0.0279390849
v -0.00587221235 -0.00401184615 -0.0290823933
v -0.00656178361 -0.0041703009 -0.0359973535
v -0.00696595106 -0.00212600059 0.0368298031
v -0.00623390637 -0.00204522093 0.0296181962
v -0.0136642121 -0.00417030044 0.0358390547
v -0.0122282533 -0.00401184568 0.0287317932
v -0.0177526604 -0.00582428789 0.0267067198
v -0.0198373478 -0.00605432829 0.0333803147
v -0.0225948691 -0.00741292909 0.023395298
v -0.0252481773 -0.00770571548 0.0292781144
v -0.0265687425 -0.00871667173 0.0188024137
v -0.029688701 -0.00906095095 0.0235382356
v -0.0295216106 -0.00968545862 0.0131122191
v -0.0329883248 -0.0100680031 0.0163899753
v -0.0313399732 -0.0102820154 0.00670341775
v -0.0350202136 -0.0106881214 0.00836535078
v -0.031953942 -0.0104834363 0
v -0.0357062817 -0.0108974976 0
v -0.0313399732 -0.0102820154 -0.00670333626
v -0.0350202136 -0.0106881214 -0.00836535078
v -0.0295216106 -0.00968545862 -0.0130343279
v -0.0329883248 -0.0100680031 -0.016300356
v -0.029688701 -0.00906095095 -0.0231576283
v -0.0265687425 -0.00871667173 -0.0185369477
v -0.0252481792 -0.00770571548 -0.0285596307
v -0.0225948691 -0.00741292909 -0.0229173992
v -0.0198373497 -0.00605432782 -0.0324030071
v -0.0177526623 -0.00582428742 -0.0260743331
v -0.013664213 -0.00417030044 -0.0348057449
v -0.0122282533 -0.00401184568 -0.028085338
v -0.00696595106 -0.00212600059 -0.0360312536
v -0.00623390637 -0.00204522093 -0.0291559603
v -0.00710242195 8.32482361e-10 0.0368744805
v -0.00635603489 8.03167421e-10 0.0297038369
v -0.0139319086 3.74565756e-09 0.0359180793
v -0.0124678193 3.60495367e-09 0.0288820155
v -0.0230375286 4.80442131e-09 0.0235360488
v -0.0257428158 4.99417752e-09 0.029348528
v -0.0300999731 3.20294569e-09 0.0131434128
v -0.033634603 3.3294516e-09 0.0164047293
v -0.033634603 3.3294516e-09 -0.0162919313
v -0.0300999731 3.20294569e-09 -0.0130482744
v -0.0230375286 4.80442131e-09 -0.0230238084
v -0.0257428195 4.99417752e-09 -0.0285855029
v -0.0202259831 1.20692611e-08 -0.0324467197
v -0.0181004535 1.16112782e-08 -0.0262113344
v -0.0139319105 3.74565756e-09 -0.0348520726
v -0.0124678193 3.60495367e-09 -0.0282090418
v -0.00710242195 8.32482361e-10 -0.0360598974
v -0.00635603489 8.03167421e-10 -0.0292288829
v -0.0127876829 0.047368411 0.0148803126
v -0.0129195731 0.0478569679 -0.0141574843
v -0.0187933743 0.0476199202 5.6054994e-10
v -0.0174684562 0.0474953614 0.00765580544
v -0.0132408459 0.0473755896 0.0144914566
v -0.006132429 0.0473033786 0.0182701163
v -0.0124724898 0.0478642434 -0.0145578329
v 2.46217913e-09 0.0472831316 0.0192980524
v 0.00613243226 0.0473033823 0.0182701126
v 0.0127876783 0.047368411 0.0148803117
v 0.0129195703 0.0478569679 -0.0141574843
v 0.012472488 0.0478642434 -0.0145578329
v 0.013240844 0.0473755896 0.0144914556
v 0.0174684506 0.0474953614 0.00765580544
v 0.0187933557 0.0476199202 5.60550661e-10
v 0.0131465122 0.0478509553 -0.0138188088
v 0.0117568877 0.0478709564 -0.0149109969
v -0.0117568765 0.0478709564 -0.0149110034
v -0.0131465197 0.0478509553 -0.0138188023
v -0.0178927109 0.0475352444 0.0052561434
v -0.0186134223 0.0476199202 5.65731462e-10
v -0.0184779409 0.0476440452 -0.00152740604
v -0.0184121374 0.0475840792 0.00225348864
v -0.0155576346 0.0474412255 0.0107935034
v -0.0154242869 0.0474374481 0.0110089984
v -0.00363129936 0.0472997613 0.0183927361
v -0.00712305028 0.0473183356 0.0174558684
v -0.0103410641 0.0473484993 0.0158896204
v 0.0103410659 0.0473484993 0.0158896204
v 0.00712305028 0.0473183393 0.0174558684
v 0.00363129936 0.0472997613 0.0183927361
v 0.0155576682 0.0474412255 0.0107934363
v 0.0154242637 0.0474374481 0.0110090254
v 0.018477954 0.0476440415 -0.0015272625
v 0.0186134223 0.0476199202 5.65731462e-10
v 0.0178926829 0.0475352444 0.00525624026
v 0.0184121542 0.0475840829 0.00225329259
v -0.0131616769 0.0473890975 0.0137076061
v -0.0171965603 0.0474949963 0.00766954571
v 2.58679124e-16 0.0472934879 0.0187026486
v 0.0171965603 0.0474949963 0.00766954571
v 0.0131616788 0.0473890975 0.0137076061
v 0.015476496 0.047428038 0.010945945
v 0.0182557702 0.0474415794 0.0039766496
v 0.0182557702 0.0474415794 -0.00399343623
v 0.017202815 0.0477132127 -0.00768887531
v 0.0122231403 -0.0479802825 0.0145488745
v 0.0129396711 -0.0479314178 0.0139840804
v 0.00363129936 -0.0475120507 0.0185521115
v 0.0061918986 -0.047762122 0.0178563073
v 2.44179005e-16 -0.0477674901 0.0188831743
v -4.57749261e-09 -0.0477674901 0.0188831743
v -0.00363129936 -0.047512047 0.0185521115
v -0.00619190559 -0.047762122 0.0178563073
v -0.0129396711 -0.0479314141 0.0139840785
v -0.0122231375 -0.0479802825 0.0145488735
v -0.0122231375 -0.0479802825 -0.0145488717
v -0.0129396711 -0.0479314141 -0.0139840776
v -0.00712305028 -0.04756964 0.0175987873
v -0.0103410641 -0.0475388989 0.0160068646
v -0.015476496 -0.0474280193 0.0110076107
v -0.0171965603 -0.0477074906 0.00771042192
v -0.0172028169 -0.047713194 0.00768887624
v -0.0131616769 -0.0478450321 0.0138066905
v -0.0182557702 -0.0474415533 0.00399343763
v -0.0186134223 -0.0477674492 5.27808186e-10
v -0.0172028169 -0.047713194 -0.00768887438
v -0.0182557702 -0.0474415496 -0.00399343623
v -0.0171965603 -0.0477074906 -0.00771042006
v -0.0131616769 -0.0478450321 -0.0138066877
v -0.015476496 -0.0474280193 -0.0110076098
v -0.00712305028 -0.04756964 -0.0175987855
v -0.00619190559 -0.047762122 -0.0178563036
v -0.0103410641 -0.0475388989 -0.0160068627
v -4.57749261e-09 -0.0477674901 -0.0188831706
v -0.00363129936 -0.0475120507 -0.0185521096
v 0.0122231403 -0.0479802825 -0.0145488717
v 0.0061918986 -0.0477621257 -0.0178563055
v 0.00712305028 -0.0475696437 -0.0175987855
v 0.0103410659 -0.0475389026 -0.0160068627
v 0.00363129936 -0.0475120507 -0.0185521096
v 2.44179005e-16 -0.0477674901 -0.0188831706
v 0.00712305028 -0.0475696437 0.0175987892
v 0.0103410659 -0.0475389026 0.0160068646
v 0.0186134223 -0.0477674641 5.27807908e-10
v 0.0182557702 -0.0474415608 -0.00399343623
v 0.017202815 -0.0477131978 -0.00768887531
v 0.017202815 -0.0477131978 0.00768887624
v 0.0182557702 -0.0474415608 0.00399343763
v 0.0171965603 -0.0477074981 -0.00771042053
v 0.0129396711 -0.0479314178 -0.0139840785
v 0.0131616779 -0.0478450395 -0.0138066877
v 0.015476496 -0.0474280231 -0.0110076098
v 0.0131616779 -0.0478450395 0.0138066905
v 0.0171965603 -0.0477074981 0.00771042192
v 0.015476496 -0.0474280231 0.0110076116
v 0.0171965603 0.047707513 -0.00771042053
v 0.0131616779 0.0478450507 -0.0138066877
v 0.015476496 0.047428038 -0.0110076098
v 0.0103410659 0.0475389138 -0.0160068627
v 0.00712305028 0.0475696586 -0.0175987873
v 0.00619190512 0.0477621369 -0.0178563036
v 2.00403427e-09 0.047767505 -0.0188831706
v 0.00363129936 0.0475120619 -0.0185521096
v -0.00619190326 0.0477621369 -0.0178563055
v -0.00712305028 0.0475696586 -0.0175987873
v -0.0103410641 0.0475389175 -0.0160068627
v -0.00363129936 0.0475120656 -0.0185521096
v 2.44178899e-16 0.047767505 -0.0188831706
v -0.015476496 0.0474280417 0.010945945
v -0.0182557702 0.0474415906 0.0039766496
v -0.0172028169 0.0477132201 -0.00768887531
v -0.0182557702 0.0474415906 -0.00399343623
v -0.0171965603 0.0477075204 -0.00771042053
v -0.0131616769 0.0478450544 -0.0138066877
v -0.015476496 0.0474280417 -0.0110076098
v -0.0186134223 0.0439859368 5.58457003e-10
v -0.0177836064 0.0438981019 0.0056450665
v -0.0182557702 0.0436223447 0.00398226455
v -0.0182557702 0.0436223447 -0.00397939282
v -0.0177836064 0.0438981019 -0.00564287091
v -0.0131616769 0.0422064625 -0.0137104923
v -0.014796529 0.0429772772 -0.0117703574
v -0.0105802147 0.0421297327 -0.0157083981
v -0.00895800628 0.0419839509 -0.0165625159
v -0.00712305028 0.0413608886 -0.0174561832
v -0.0049941563 0.0414112955 -0.0180196688
v -0.00712305028 0.0413608886 0.0175751355
v -0.00895800628 0.0419839509 0.0166462604
v -0.0049941563 0.0414112955 0.0181464162
v -0.0103410641 0.0420485251 0.015967086
v -0.0105802147 0.0421297327 0.0157787912
v -0.00363129936 0.0410080478 -0.0183927454
v 1.07065457e-09 0.0410575569 -0.0187026449
v 2.58679124e-16 0.0410575569 -0.0187026449
v -0.00363129936 0.0410080478 0.0185441989
v 1.07065457e-09 0.0410575569 0.0188597366
v 2.46061536e-16 0.0410575569 0.0188597366
v 0.00363129936 0.0410080478 -0.0183927454
v 0.0049941591 0.0414112955 -0.0180196688
v 0.00363129936 0.0410080478 0.0185441989
v 0.0049941591 0.0414112955 0.0181464143
v 0.00712305028 0.0413608849 -0.0174561832
v 0.00895800628 0.0419839472 -0.0165625159
v 0.00895800628 0.0419839472 0.0166462604
v 0.00712305028 0.0413608849 0.0175751373
v 0.0105802193 0.0421297289 0.0157787874
v 0.0103410659 0.0420485251 0.015967086
v 0.0147965271 0.0429772735 0.0117959762
v 0.0131616788 0.0422064587 0.0137638506
v 0.015476496 0.0428999625 0.0109755658
v 0.0176299922 0.0439299047 0.00618090248
v 0.0171965603 0.0434115566 0.00768363848
v 0.0177836083 0.0438980944 0.00564505532
v 0.0176299922 0.0439299047 -0.00617872598
v 0.0177836083 0.0438980944 -0.0056428602
v 0.0105802193 0.0421297327 -0.0157083962
v 0.0131616788 0.0422064587 -0.0137104923
v 0.0147965271 0.0429772735 -0.0117703574
v 0.0182557702 0.0436223336 0.00398226455
v 0.0186134223 0.0439859219 5.58457003e-10
v 0.0182557702 0.0436223336 -0.00397939282
v 0.0186134223 -0.0439858884 5.58457114e-10
v 0.0177835934 -0.0438980833 -0.00564291747
v 0.0182557702 -0.0436223112 -0.00397939282
v 0.0182557702 -0.0436223112 0.00397939421
v 0.0177835934 -0.0438980833 0.00564291887
v 0.0131616788 -0.0422064476 0.0137104951
v 0.0147965271 -0.0429772623 0.0117703592
v 0.0105802109 -0.042129714 0.0157084055
v 0.0131616788 -0.0422064438 -0.0137104923
v 0.0147965271 -0.0429772623 -0.0117703574
v 0.0105802109 -0.042129714 -0.0157084037
v 0.00895800628 -0.0419839397 -0.0165625159
v 0.00712305028 -0.0413608737 -0.0174561832
v 0.00499415258 -0.0414112844 -0.0180196688
v 0.00712305028 -0.0413608737 0.0174561851
v 0.00895800628 -0.0419839397 0.0165625177
v 0.00499415258 -0.0414112844 0.0180196725
v 0.00363129936 -0.0410080366 -0.0183927435
v 2.58679098e-16 -0.0410575494 -0.0187026449
v -2.97170311e-09 -0.0410575531 -0.0187026449
v 0.00363129936 -0.0410080366 0.0183927454
v 2.58679098e-16 -0.0410575494 0.0187026486
v -2.97170311e-09 -0.0410575531 0.0187026486
v -0.00363129936 -0.0410080329 -0.0183927435
v -0.00499416003 -0.0414112844 -0.0180196688
v -0.00499416003 -0.0414112844 0.0180196706
v -0.00363129936 -0.0410080329 0.0183927454
v -0.00712305028 -0.04136087 -0.0174561832
v -0.00895800628 -0.0419839323 -0.0165625159
v -0.00895800628 -0.0419839323 0.0165625177
v -0.00712305028 -0.04136087 0.0174561851
v -0.0103410641 -0.0420485064 0.0158924237
v -0.0105802175 -0.0421297103 0.0157083999
v -0.0105802175 -0.0421297103 -0.0157083962
v -0.0131616769 -0.0422064401 -0.0137104923
v -0.014796529 -0.0429772548 -0.0117703574
v -0.014796529 -0.0429772548 0.0117703592
v -0.0131616769 -0.0422064401 0.0137104951
v -0.015476496 -0.0428999439 0.0109511726
v -0.0171965603 -0.043411538 0.00767472619
v -0.0176299922 -0.0439298823 0.00617872784
v -0.0177836102 -0.0438980721 0.00564286299
v -0.0177836102 -0.0438980721 -0.00564286113
v -0.0176299922 -0.0439298823 -0.00617872598
v -0.0186134223 -0.0439858772 5.58457225e-10
v -0.0182557702 -0.0436223038 0.00397939421
v -0.0182557702 -0.0436223038 -0.00397939282
v -0.015476496 -0.0428999439 -0.0109511698
v -0.0171965603 -0.043411538 -0.00767472433
v -0.0103410641 -0.0420485064 -0.0158924218
v 0.0103410659 -0.0420485139 -0.0158924218
v 0.0103410659 -0.0420485139 0.0158924256
v 0.0176299922 -0.0439298935 -0.00617872644
v 0.0176299922 -0.0439298935 0.00617872784
v 0.0171965603 -0.0434115492 -0.00767472433
v 0.015476496 -0.0428999513 -0.0109511698
v 0.0171965603 -0.0434115492 0.00767472619
v 0.015476496 -0.0428999513 0.0109511726
v 0.0171965603 0.0434115566 -0.00767472433
v 0.015476496 0.0428999625 -0.0109511698
v 0.0103410659 0.0420485251 -0.0158924218
v -0.0103410641 0.0420485251 -0.0158924218
v -0.0176299922 0.0439299121 0.00618090201
v -0.0171965603 0.0434115641 0.00768363848
v -0.014796529 0.0429772772 0.0117959762
v -0.015476496 0.0428999662 0.0109755658
v -0.0176299922 0.0439299121 -0.00617872644
v -0.015476496 0.0428999662 -0.0109511698
v -0.0171965603 0.0434115641 -0.00767472433
v -0.0131616769 0.0422064662 0.0137638506
v 0.0202443283 0.0428469442 -0.0116135813
v 0.0219860468 0.0428469442 -0.00779687334
v 0.024463091 0.0375346802 -0.0118440036
v 0.0222936366 0.0428469442 0.00566167338
v 0.0230833944 0.0428469442 4.30525587e-10
v 0.0253868289 0.0389519967 0.00575052341
v 0.0298517495 0.030604383 0.00590468664
v 0.0287655517 0.029490808 -0.0121785449
v 0.0331694856 0.0210806616 0.00600928953
v 0.0319625661 0.0203136206 -0.0124959545
v 0.0352125354 0.0107468218 0.00601459853
v 0.0339312777 0.010355792 -0.0126561569
v 0.0359023847 -1.05243334e-08 0.00600859616
v 0.0345960297 -2.58431831e-09 -0.0126505969
v 0.035212528 -0.0107468423 0.00601459853
v 0.033931274 -0.0103557967 -0.0126561569
v 0.0331694745 -0.0210806783 0.00597318169
v 0.0319625586 -0.0203136224 -0.0124959545
v 0.0287655462 -0.029490808 -0.0121785449
v 0.0298517365 -0.030604396 0.005852642
v 0.025386814 -0.0389520042 0.00572045241
v 0.0244630836 -0.0375346765 -0.0118440036
v 0.0231744424 -0.0427322723 4.28063696e-10
v 0.0220771022 -0.0427322723 -0.0077994368
v 0.0203353856 -0.0427322686 -0.0116176605
v 0.0223846901 -0.0427322723 0.00565453991
v 0.016799232 0.0414682105 -0.0114396615
v 0.0173577741 0.0428469442 -0.00838055089
v 0.0184728317 0.0428469442 -0.00619433774
v 0.021381367 0.0352658145 -0.0117122605
v 0.0194548611 0.0428469442 5.38743439e-10
v 0.0185733065 0.0428469442 0.00558451936
v 0.0226401631 0.0373420306 0.00570914382
v 0.0266220141 0.0293394402 0.00586907985
v 0.0251418278 0.0277081765 -0.0120572969
v 0.0295807924 0.0202093553 0.00598933455
v 0.0279360991 0.0190857239 -0.0123815825
v 0.0314028002 0.0103026349 0.00599718327
v 0.0296568032 0.00972981751 -0.0125723444
v 0.032018017 -8.27169711e-09 0.00598629564
v 0.0302378144 9.46634882e-10 -0.012584676
v 0.0314028002 -0.0103026517 0.00599504681
v 0.0296568014 -0.00972981472 -0.0125723444
v 0.0295807887 -0.0202093702 0.00593672879
v 0.0279360972 -0.0190857183 -0.0123815825
v 0.0251418222 -0.0277081653 -0.012057296
v 0.0266220029 -0.0293394513 0.00580312079
v 0.02264015 -0.037342038 0.00566589739
v 0.0213813651 -0.0352658071 -0.0117122615
v 0.0195395537 -0.0427322723 5.36604539e-10
v 0.0185575373 -0.0427322686 -0.00619601505
v 0.0167992301 -0.0414681993 -0.0114396615
v 0.0173113141 -0.0427322686 -0.00863701757
v 0.0186580122 -0.0427322686 0.00557593163
v 0.0153654078 -0.0427322686 -0.0113779437
v 0.0152353495 0.0428469442 -0.0113727851
f 10 7 30
f 10 30 32
f 801 1 17
f 16 817 46
f 12 10 32
f 12 32 33
f 803 801 17
f 803 17 19
f 809 12 33
f 809 33 35
f 4 803 19
f 4 19 21
f 13 809 35
f 13 35 38
f 806 4 21
f 806 21 23
f 812 13 38
f 812 38 40
f 6 806 23
f 6 23 25
f 813 812 40
f 813 40 42
f 808 6 25
f 808 25 27
f 815 813 42
f 815 42 43
f 7 808 27
f 7 27 30
f 817 815 43
f 817 43 46
f 30 27 57
f 30 57 59
f 46 43 73
f 46 73 75
f 32 30 59
f 32 59 61
f 17 1 47
f 16 46 75
f 33 32 61
f 33 61 63
f 19 17 47
f 19 47 49
f 35 33 63
f 35 63 65
f 21 19 49
f 21 49 51
f 38 35 65
f 38 65 67
f 23 21 51
f 23 51 53
f 40 38 67
f 40 67 69
f 25 23 53
f 25 53 55
f 42 40 69
f 42 69 71
f 27 25 55
f 27 55 57
f 43 42 71
f 43 71 73
f 67 65 96
f 67 96 98
f 53 51 82
f 53 82 84
f 69 67 98
f 69 98 100
f 55 53 84
f 55 84 86
f 71 69 100
f 71 100 102
f 57 55 86
f 57 86 88
f 73 71 102
f 73 102 104
f 59 57 88
f 59 88 90
f 75 73 104
f 75 104 106
f 61 59 90
f 61 90 92
f 47 1 77
f 16 75 106
f 63 61 92
f 63 92 93
f 49 47 77
f 49 77 79
f 65 63 93
f 65 93 96
f 51 49 79
f 51 79 82
f 106 104 134
f 106 134 136
f 92 90 119
f 92 119 122
f 77 1 108
f 16 106 136
f 93 92 122
f 93 122 124
f 79 77 108
f 79 108 110
f 96 93 124
f 96 124 126
f 82 79 110
f 82 110 111
f 98 96 126
f 98 126 128
f 84 82 111
f 84 111 113
f 100 98 128
f 100 128 130
f 86 84 113
f 86 113 116
f 102 100 130
f 102 130 131
f 88 86 116
f 88 116 117
f 104 102 131
f 104 131 134
f 90 88 117
f 90 117 119
f 113 111 141
f 113 141 144
f 130 128 157
f 130 157 158
f 116 113 144
f 116 144 146
f 131 130 158
f 131 158 160
f 117 116 146
f 117 146 147
f 134 131 160
f 134 160 163
f 119 117 147
f 119 147 149
f 136 134 163
f 136 163 165
f 122 119 149
f 122 149 151
f 108 1 137
f 16 136 165
f 124 122 151
f 124 151 152
f 110 108 137
f 110 137 139
f 126 124 152
f 126 152 154
f 111 110 139
f 111 139 141
f 128 126 154
f 128 154 157
f 137 1 166
f 16 165 185
f 139 137 166
f 139 166 168
f 141 139 168
f 141 168 170
f 157 154 176
f 157 176 177
f 144 141 170
f 144 170 173
f 158 157 177
f 158 177 180
f 146 144 173
f 146 173 174
f 160 158 180
f 160 180 182
f 163 160 182
f 163 182 184
f 165 163 184
f 165 184 185
f 180 177 196
f 180 196 198
f 174 173 193
f 174 193 195
f 182 180 198
f 182 198 200
f 819 174 195
f 819 195 824
f 184 182 200
f 184 200 202
f 185 184 202
f 185 202 203
f 166 1 188
f 16 185 203
f 168 166 188
f 168 188 190
f 170 168 190
f 170 190 192
f 173 170 192
f 173 192 193
f 16 203 221
f 829 830 835
f 829 835 834
f 836 825 820
f 836 820 837
f 838 822 857
f 822 842 857
f 821 841 839
f 821 839 840
f 856 843 823
f 823 819 824
f 827 828 831
f 831 851 860
f 831 860 847
f 846 856 823
f 845 846 823
f 827 831 847
f 827 847 848
f 845 823 824
f 844 845 824
f 827 848 849
f 858 844 824
f 827 849 858
f 858 824 826
f 826 827 858
f 850 832 859
f 832 854 859
f 833 852 853
f 833 853 855
f 190 188 206
f 190 206 208
f 192 190 208
f 192 208 210
f 193 192 210
f 193 210 212
f 198 196 214
f 198 214 216
f 195 193 212
f 195 212 213
f 200 198 216
f 200 216 218
f 824 195 213
f 824 213 826
f 202 200 218
f 202 218 220
f 203 202 220
f 203 220 221
f 188 1 206
f 218 216 233
f 218 233 235
f 826 213 231
f 826 231 827
f 220 218 235
f 220 235 237
f 221 220 237
f 221 237 239
f 206 1 224
f 16 221 239
f 208 206 224
f 208 224 226
f 210 208 226
f 210 226 228
f 212 210 228
f 212 228 229
f 216 214 232
f 216 232 233
f 213 212 229
f 213 229 231
f 226 224 242
f 226 242 244
f 829 251 830
f 228 226 244
f 228 244 245
f 229 228 245
f 229 245 247
f 233 232 252
f 233 252 255
f 231 229 247
f 231 247 250
f 235 233 255
f 235 255 257
f 827 231 250
f 827 250 828
f 237 235 257
f 237 257 259
f 239 237 259
f 239 259 261
f 224 1 242
f 16 239 261
f 270 273 831
f 831 828 250
f 831 250 270
f 259 257 285
f 259 285 288
f 861 851 831
f 831 273 275
f 275 832 850
f 861 831 275
f 861 275 850
f 261 259 288
f 261 288 290
f 862 854 832
f 832 275 276
f 276 833 855
f 862 832 276
f 862 276 855
f 242 1 263
f 16 261 290
f 863 852 833
f 833 276 278
f 278 864 863
f 833 278 863
f 244 242 263
f 244 263 264
f 245 244 264
f 245 264 267
f 252 251 280
f 252 280 282
f 247 245 267
f 247 267 268
f 255 252 282
f 255 282 284
f 250 247 268
f 250 268 270
f 257 255 284
f 257 284 285
f 1053 306 280
f 280 278 1052
f 1051 1053 280
f 280 1052 1051
f 267 264 294
f 267 294 295
f 282 280 306
f 282 306 308
f 268 267 295
f 268 295 297
f 284 282 308
f 284 308 310
f 270 268 297
f 270 297 300
f 285 284 310
f 285 310 311
f 273 270 300
f 273 300 302
f 288 285 311
f 288 311 314
f 275 273 302
f 275 302 303
f 290 288 314
f 290 314 315
f 1055 276 275
f 275 303 1056
f 1054 1055 275
f 275 1056 1054
f 263 1 291
f 16 290 315
f 1052 278 276
f 1052 276 1055
f 264 263 291
f 264 291 294
f 314 311 337
f 314 337 339
f 303 302 328
f 303 328 329
f 315 314 339
f 315 339 341
f 1056 303 329
f 1056 329 1057
f 291 1 317
f 16 315 341
f 294 291 317
f 294 317 320
f 1058 332 306
f 1058 306 1053
f 295 294 320
f 295 320 321
f 308 306 332
f 308 332 334
f 297 295 321
f 297 321 323
f 310 308 334
f 310 334 336
f 300 297 323
f 300 323 325
f 311 310 336
f 311 336 337
f 302 300 325
f 302 325 328
f 321 320 345
f 321 345 347
f 334 332 358
f 334 358 360
f 323 321 347
f 323 347 349
f 336 334 360
f 336 360 362
f 325 323 349
f 325 349 351
f 337 336 362
f 337 362 364
f 328 325 351
f 328 351 353
f 339 337 364
f 339 364 365
f 329 328 353
f 329 353 355
f 341 339 365
f 341 365 368
f 1057 329 355
f 1057 355 1059
f 317 1 344
f 16 341 368
f 320 317 344
f 320 344 345
f 1060 358 332
f 1060 332 1058
f 355 353 380
f 355 380 381
f 368 365 392
f 368 392 394
f 1059 355 381
f 1059 381 1061
f 344 1 370
f 16 368 394
f 345 344 370
f 345 370 372
f 1062 383 358
f 1062 358 1060
f 347 345 372
f 347 372 374
f 360 358 383
f 360 383 385
f 349 347 374
f 349 374 375
f 362 360 385
f 362 385 388
f 351 349 375
f 351 375 377
f 364 362 388
f 364 388 390
f 353 351 377
f 353 377 380
f 365 364 390
f 365 390 392
f 385 383 410
f 385 410 411
f 375 374 399
f 375 399 402
f 388 385 411
f 388 411 413
f 377 375 402
f 377 402 404
f 390 388 413
f 390 413 415
f 380 377 404
f 380 404 406
f 392 390 415
f 392 415 418
f 381 380 406
f 381 406 407
f 394 392 418
f 394 418 420
f 1061 381 407
f 1061 407 1063
f 370 1 396
f 16 394 420
f 372 370 396
f 372 396 398
f 410 383 1062
f 410 1062 1064
f 374 372 398
f 374 398 399
f 420 418 444
f 420 444 445
f 1063 407 433
f 1063 433 1065
f 396 1 421
f 16 420 445
f 398 396 421
f 398 421 423
f 435 410 1064
f 435 1064 1066
f 399 398 423
f 399 423 425
f 411 410 435
f 411 435 438
f 402 399 425
f 402 425 427
f 413 411 438
f 413 438 440
f 404 402 427
f 404 427 429
f 415 413 440
f 415 440 441
f 406 404 429
f 406 429 432
f 418 415 441
f 418 441 444
f 407 406 432
f 407 432 433
f 440 438 464
f 440 464 466
f 429 427 453
f 429 453 455
f 441 440 466
f 441 466 468
f 432 429 455
f 432 455 457
f 444 441 468
f 444 468 470
f 433 432 457
f 433 457 459
f 445 444 470
f 445 470 472
f 1065 433 459
f 1065 459 1067
f 421 1 448
f 16 445 472
f 423 421 448
f 423 448 449
f 461 435 1066
f 461 1066 1068
f 425 423 449
f 425 449 451
f 438 435 461
f 438 461 464
f 427 425 451
f 427 451 453
f 448 1 474
f 16 472 497
f 449 448 474
f 449 474 476
f 487 461 1068
f 487 1068 1069
f 451 449 476
f 451 476 477
f 464 461 487
f 464 487 489
f 453 451 477
f 453 477 480
f 466 464 489
f 466 489 491
f 455 453 480
f 455 480 481
f 468 466 491
f 468 491 493
f 457 455 481
f 457 481 483
f 470 468 493
f 470 493 495
f 459 457 483
f 459 483 486
f 472 470 495
f 472 495 497
f 1067 459 486
f 1067 486 1070
f 481 480 506
f 481 506 507
f 493 491 518
f 493 518 520
f 483 481 507
f 483 507 510
f 495 493 520
f 495 520 522
f 486 483 510
f 486 510 511
f 497 495 522
f 497 522 524
f 1070 486 511
f 1070 511 1071
f 474 1 500
f 16 497 524
f 476 474 500
f 476 500 501
f 514 487 1069
f 514 1069 1072
f 477 476 501
f 477 501 504
f 489 487 514
f 489 514 516
f 480 477 504
f 480 504 506
f 491 489 516
f 491 516 518
f 1073 539 540
f 1073 540 1074
f 501 500 525
f 501 525 528
f 1075 1074 540
f 543 514 1072
f 1075 540 543
f 543 1072 1075
f 504 501 528
f 504 528 530
f 516 514 543
f 516 543 544
f 506 504 530
f 506 530 531
f 518 516 544
f 518 544 547
f 507 506 531
f 507 531 534
f 520 518 547
f 520 547 549
f 510 507 534
f 510 534 536
f 522 520 549
f 522 549 550
f 511 510 536
f 511 536 537
f 524 522 550
f 524 550 552
f 1071 511 537
f 537 539 1073
f 1076 1071 537
f 537 1073 1076
f 500 1 525
f 16 524 552
f 549 547 569
f 549 569 571
f 536 534 563
f 536 563 564
f 550 549 571
f 550 571 573
f 552 550 573
f 552 573 575
f 525 1 555
f 16 552 575
f 528 525 555
f 528 555 557
f 530 528 557
f 530 557 558
f 544 543 565
f 544 565 566
f 531 530 558
f 531 558 560
f 547 544 566
f 547 566 569
f 534 531 560
f 534 560 563
f 557 555 576
f 557 576 579
f 558 557 579
f 558 579 580
f 560 558 580
f 560 580 582
f 569 566 585
f 569 585 586
f 563 560 582
f 563 582 584
f 571 569 586
f 571 586 588
f 573 571 588
f 573 588 590
f 564 865 866
f 575 573 590
f 575 590 593
f 555 1 576
f 16 575 593
f 867 868 584
f 584 602 870
f 869 867 584
f 584 870 869
f 590 588 606
f 590 606 609
f 593 590 609
f 593 609 610
f 576 1 595
f 16 593 610
f 579 576 595
f 579 595 597
f 580 579 597
f 580 597 599
f 582 580 599
f 582 599 601
f 586 585 603
f 586 603 604
f 584 582 601
f 584 601 602
f 588 586 604
f 588 604 606
f 599 597 615
f 599 615 616
f 601 599 616
f 601 616 619
f 604 603 621
f 604 621 623
f 602 601 619
f 602 619 620
f 606 604 623
f 606 623 625
f 871 870 602
f 602 620 872
f 602 872 871
f 609 606 625
f 609 625 626
f 610 609 626
f 610 626 629
f 595 1 612
f 16 610 629
f 597 595 612
f 597 612 615
f 626 625 646
f 626 646 648
f 873 874 640
f 629 626 648
f 629 648 650
f 612 1 630
f 16 629 650
f 615 612 630
f 615 630 632
f 641 875 876
f 616 615 632
f 616 632 634
f 619 616 634
f 619 634 636
f 623 621 642
f 623 642 644
f 620 619 636
f 620 636 639
f 625 623 644
f 625 644 646
f 877 872 620
f 620 639 640
f 640 874 878
f 878 877 620
f 620 640 878
f 642 641 669
f 642 669 671
f 636 634 657
f 636 657 659
f 644 642 671
f 644 671 674
f 639 636 659
f 639 659 661
f 646 644 674
f 646 674 676
f 640 639 661
f 640 661 663
f 648 646 676
f 648 676 678
f 882 873 640
f 640 663 665
f 665 881 880
f 879 882 640
f 665 880 879
f 640 665 879
f 650 648 678
f 650 678 679
f 883 881 665
f 665 666 884
f 883 665 884
f 630 1 652
f 16 650 679
f 886 884 666
f 666 667 885
f 886 666 885
f 632 630 652
f 632 652 654
f 634 632 654
f 634 654 657
f 679 678 708
f 679 708 709
f 666 665 694
f 666 694 696
f 652 1 681
f 16 679 709
f 667 666 696
f 667 696 698
f 654 652 681
f 654 681 684
f 669 667 698
f 669 698 699
f 657 654 684
f 657 684 686
f 671 669 699
f 671 699 701
f 659 657 686
f 659 686 688
f 674 671 701
f 674 701 704
f 661 659 688
f 661 688 690
f 676 674 704
f 676 704 706
f 663 661 690
f 663 690 692
f 678 676 706
f 678 706 708
f 665 663 692
f 665 692 694
f 688 686 715
f 688 715 718
f 704 701 731
f 704 731 733
f 690 688 718
f 690 718 719
f 706 704 733
f 706 733 735
f 692 690 719
f 692 719 721
f 708 706 735
f 708 735 738
f 694 692 721
f 694 721 723
f 709 708 738
f 709 738 739
f 696 694 723
f 696 723 725
f 681 1 711
f 16 709 739
f 698 696 725
f 698 725 728
f 684 681 711
f 684 711 714
f 699 698 728
f 699 728 730
f 686 684 714
f 686 714 715
f 701 699 730
f 701 730 731
f 725 723 754
f 725 754 755
f 711 1 741
f 16 739 770
f 728 725 755
f 728 755 757
f 714 711 741
f 714 741 744
f 730 728 757
f 730 757 759
f 715 714 744
f 715 744 746
f 731 730 759
f 731 759 761
f 718 715 746
f 718 746 748
f 733 731 761
f 733 761 763
f 719 718 748
f 719 748 750
f 735 733 763
f 735 763 765
f 721 719 750
f 721 750 752
f 738 735 765
f 738 765 767
f 723 721 752
f 723 752 754
f 739 738 767
f 739 767 770
f 763 761 791
f 763 791 793
f 750 748 778
f 750 778 780
f 765 763 793
f 765 793 795
f 752 750 780
f 752 780 782
f 767 765 795
f 767 795 797
f 754 752 782
f 754 782 784
f 770 767 797
f 770 797 799
f 755 754 784
f 755 784 786
f 741 1 771
f 16 770 799
f 757 755 786
f 757 786 788
f 744 741 771
f 744 771 773
f 759 757 788
f 759 788 790
f 746 744 773
f 746 773 776
f 761 759 790
f 761 790 791
f 748 746 776
f 748 776 778
f 771 1 801
f 16 799 817
f 788 786 10
f 788 10 12
f 773 771 801
f 773 801 803
f 790 788 12
f 790 12 809
f 776 773 803
f 776 803 4
f 791 790 809
f 791 809 13
f 778 776 4
f 778 4 806
f 793 791 13
f 793 13 812
f 780 778 806
f 780 806 6
f 795 793 812
f 795 812 813
f 782 780 6
f 782 6 808
f 797 795 813
f 797 813 815
f 784 782 808
f 784 808 7
f 799 797 815
f 799 815 817
f 786 784 7
f 786 7 10
f 887 885 667
f 667 669 641
f 641 876 888
f 889 887 667
f 641 888 889
f 667 641 889
f 892 875 641
f 641 642 621
f 621 891 890
f 892 641 621
f 621 890 892
f 894 891 621
f 621 603 893
f 894 621 893
f 897 896 585
f 585 566 565
f 565 895 898
f 898 897 585
f 585 565 898
f 900 893 603
f 603 585 896
f 899 900 603
f 603 896 899
f 902 865 564
f 564 563 584
f 584 868 901
f 902 564 584
f 584 901 902
f 904 905 540
f 540 539 903
f 904 540 903
f 907 903 539
f 539 537 906
f 539 906 907
f 910 909 565
f 565 543 540
f 540 905 908
f 911 910 565
f 540 908 911
f 565 540 911
f 565 909 895
f 913 906 537
f 537 536 564
f 564 866 912
f 914 913 537
f 564 912 914
f 537 564 914
f 915 864 278
f 278 280 251
f 251 829 834
f 251 834 916
f 917 915 278
f 251 916 917
f 278 251 917
f 918 835 830
f 830 251 252
f 252 232 920
f 252 920 919
f 918 830 252
f 918 252 919
f 922 920 232
f 232 214 921
f 232 921 922
f 924 923 196
f 196 177 176
f 176 825 836
f 925 924 196
f 176 836 925
f 196 176 925
f 927 921 214
f 214 196 923
f 926 927 214
f 214 923 926
f 928 842 822
f 822 149 147
f 147 823 843
f 928 822 147
f 928 147 843
f 929 841 821
f 821 151 149
f 149 822 838
f 929 821 149
f 149 838 929
f 931 930 152
f 152 151 821
f 821 840 931
f 931 152 821
f 933 837 820
f 820 176 154
f 154 152 930
f 154 930 932
f 933 820 154
f 154 932 934
f 933 154 934
f 825 176 820
f 174 819 823
f 823 147 146
f 823 146 174
f 9 31 29
f 9 29 8
f 802 18 2
f 15 45 818
f 11 34 31
f 11 31 9
f 804 20 18
f 804 18 802
f 810 36 34
f 810 34 11
f 3 22 20
f 3 20 804
f 810 14 37
f 810 37 36
f 805 24 22
f 805 22 3
f 811 39 37
f 811 37 14
f 805 5 26
f 805 26 24
f 814 41 39
f 814 39 811
f 26 5 807
f 26 807 28
f 816 44 41
f 816 41 814
f 8 29 28
f 8 28 807
f 818 45 44
f 818 44 816
f 28 29 60
f 28 60 58
f 45 76 74
f 45 74 44
f 31 62 60
f 31 60 29
f 18 48 2
f 15 76 45
f 34 64 62
f 34 62 31
f 20 50 48
f 20 48 18
f 34 36 66
f 34 66 64
f 22 52 50
f 22 50 20
f 36 37 68
f 36 68 66
f 24 54 52
f 24 52 22
f 37 39 70
f 37 70 68
f 24 26 56
f 24 56 54
f 41 72 70
f 41 70 39
f 26 28 58
f 26 58 56
f 44 74 72
f 44 72 41
f 66 68 97
f 66 97 95
f 54 83 81
f 54 81 52
f 68 70 99
f 68 99 97
f 56 85 83
f 56 83 54
f 72 101 99
f 72 99 70
f 56 58 87
f 56 87 85
f 74 103 101
f 74 101 72
f 58 60 89
f 58 89 87
f 76 105 103
f 76 103 74
f 60 62 91
f 60 91 89
f 48 78 2
f 15 105 76
f 62 64 94
f 62 94 91
f 50 80 78
f 50 78 48
f 64 66 95
f 64 95 94
f 52 81 80
f 52 80 50
f 105 135 133
f 105 133 103
f 89 91 121
f 89 121 120
f 78 107 2
f 15 135 105
f 91 94 123
f 91 123 121
f 80 109 107
f 80 107 78
f 94 95 125
f 94 125 123
f 81 112 109
f 81 109 80
f 95 97 127
f 95 127 125
f 83 114 112
f 83 112 81
f 97 99 129
f 97 129 127
f 85 115 114
f 85 114 83
f 99 101 132
f 99 132 129
f 85 87 118
f 85 118 115
f 101 103 133
f 101 133 132
f 87 89 120
f 87 120 118
f 114 143 142
f 114 142 112
f 127 129 159
f 127 159 156
f 115 145 143
f 115 143 114
f 129 132 161
f 129 161 159
f 115 118 148
f 115 148 145
f 132 133 162
f 132 162 161
f 118 120 150
f 118 150 148
f 135 164 162
f 135 162 133
f 937 936 150
f 150 120 121
f 121 935 937
f 150 121 937
f 107 138 2
f 15 164 135
f 938 935 121
f 121 123 153
f 153 939 938
f 121 153 938
f 109 140 138
f 109 138 107
f 153 123 125
f 153 125 155
f 112 142 140
f 112 140 109
f 155 125 127
f 155 127 156
f 138 167 2
f 15 186 164
f 140 169 167
f 140 167 138
f 142 171 169
f 142 169 140
f 940 941 155
f 155 156 178
f 178 942 940
f 940 155 178
f 143 172 171
f 143 171 142
f 156 159 179
f 156 179 178
f 143 145 175
f 143 175 172
f 159 161 181
f 159 181 179
f 161 162 183
f 161 183 181
f 164 186 183
f 164 183 162
f 944 943 178
f 178 179 197
f 197 945 944
f 944 178 197
f 946 948 194
f 194 172 175
f 175 947 946
f 946 194 175
f 179 181 199
f 179 199 197
f 947 175 949
f 175 950 949
f 181 183 201
f 181 201 199
f 186 204 201
f 186 201 183
f 167 187 2
f 15 204 186
f 169 189 187
f 169 187 167
f 171 191 189
f 171 189 169
f 172 194 191
f 172 191 171
f 15 222 204
f 189 207 205
f 189 205 187
f 191 209 207
f 191 207 189
f 194 211 209
f 194 209 191
f 951 945 197
f 197 215 952
f 953 951 197
f 197 952 953
f 956 955 211
f 211 194 948
f 954 956 211
f 211 948 954
f 199 217 215
f 199 215 197
f 201 219 217
f 201 217 199
f 204 222 219
f 204 219 201
f 187 205 2
f 217 236 234
f 217 234 215
f 219 238 236
f 219 236 217
f 222 240 238
f 222 238 219
f 205 223 2
f 15 240 222
f 207 225 223
f 207 223 205
f 209 227 225
f 209 225 207
f 211 230 227
f 211 227 209
f 957 952 215
f 215 234 958
f 215 958 957
f 959 960 230
f 230 211 955
f 230 955 959
f 225 243 241
f 225 241 223
f 225 227 246
f 225 246 243
f 227 230 248
f 227 248 246
f 961 958 234
f 234 254 253
f 253 962 961
f 961 234 253
f 964 963 249
f 249 248 230
f 230 960 964
f 964 249 230
f 236 256 254
f 236 254 234
f 249 963 966
f 249 966 965
f 238 258 256
f 238 256 236
f 240 260 258
f 240 258 238
f 223 241 2
f 15 260 240
f 968 967 272
f 272 271 249
f 249 965 968
f 272 249 968
f 258 287 286
f 258 286 256
f 971 970 274
f 272 967 969
f 971 274 272
f 272 969 971
f 260 289 287
f 260 287 258
f 972 274 970
f 241 262 2
f 15 289 260
f 277 974 973
f 243 265 262
f 243 262 241
f 246 266 265
f 246 265 243
f 976 975 253
f 253 281 279
f 279 977 976
f 253 279 976
f 246 248 269
f 246 269 266
f 254 283 281
f 254 281 253
f 248 249 271
f 248 271 269
f 256 286 283
f 256 283 254
f 279 305 1080
f 279 1080 1077
f 1079 277 1078
f 266 296 293
f 266 293 265
f 279 281 307
f 279 307 305
f 269 298 296
f 269 296 266
f 283 309 307
f 283 307 281
f 269 271 299
f 269 299 298
f 286 312 309
f 286 309 283
f 299 271 272
f 299 272 301
f 287 313 312
f 287 312 286
f 301 272 274
f 301 274 304
f 289 316 313
f 289 313 287
f 1083 304 274
f 274 972 978
f 978 979 1081
f 1082 1083 274
f 978 1081 1082
f 274 978 1082
f 262 292 2
f 15 316 289
f 1079 1081 979
f 980 974 277
f 1079 979 980
f 980 277 1079
f 265 293 292
f 265 292 262
f 313 340 338
f 313 338 312
f 301 304 330
f 301 330 327
f 316 342 340
f 316 340 313
f 330 304 1083
f 330 1083 1084
f 292 318 2
f 15 342 316
f 293 319 318
f 293 318 292
f 305 331 1085
f 305 1085 1080
f 296 322 319
f 296 319 293
f 331 305 307
f 331 307 333
f 298 324 322
f 298 322 296
f 309 335 333
f 309 333 307
f 298 299 326
f 298 326 324
f 312 338 335
f 312 335 309
f 299 301 327
f 299 327 326
f 322 348 346
f 322 346 319
f 357 331 333
f 357 333 359
f 324 350 348
f 324 348 322
f 335 361 359
f 335 359 333
f 324 326 352
f 324 352 350
f 338 363 361
f 338 361 335
f 326 327 354
f 326 354 352
f 340 366 363
f 340 363 338
f 327 330 356
f 327 356 354
f 342 367 366
f 342 366 340
f 356 330 1084
f 356 1084 1086
f 318 343 2
f 15 367 342
f 319 346 343
f 319 343 318
f 331 357 1087
f 331 1087 1085
f 354 356 382
f 354 382 379
f 367 393 391
f 367 391 366
f 382 356 1086
f 382 1086 1088
f 343 369 2
f 15 393 367
f 346 371 369
f 346 369 343
f 357 384 1089
f 357 1089 1087
f 348 373 371
f 348 371 346
f 384 357 359
f 384 359 386
f 350 376 373
f 350 373 348
f 386 359 361
f 386 361 387
f 350 352 378
f 350 378 376
f 363 389 387
f 363 387 361
f 352 354 379
f 352 379 378
f 366 391 389
f 366 389 363
f 409 384 386
f 409 386 412
f 376 401 400
f 376 400 373
f 412 386 387
f 412 387 414
f 376 378 403
f 376 403 401
f 389 416 414
f 389 414 387
f 378 379 405
f 378 405 403
f 391 417 416
f 391 416 389
f 379 382 408
f 379 408 405
f 393 419 417
f 393 417 391
f 1090 408 382
f 1090 382 1088
f 369 395 2
f 15 419 393
f 371 397 395
f 371 395 369
f 384 409 1091
f 384 1091 1089
f 373 400 397
f 373 397 371
f 419 446 443
f 419 443 417
f 1092 434 408
f 1092 408 1090
f 395 422 2
f 15 446 419
f 397 424 422
f 397 422 395
f 409 436 1093
f 409 1093 1091
f 400 426 424
f 400 424 397
f 436 409 412
f 436 412 437
f 401 428 426
f 401 426 400
f 412 414 439
f 412 439 437
f 428 401 403
f 428 403 430
f 416 442 439
f 416 439 414
f 403 405 431
f 403 431 430
f 417 443 442
f 417 442 416
f 408 434 431
f 408 431 405
f 437 439 465
f 437 465 463
f 454 428 430
f 454 430 456
f 442 467 465
f 442 465 439
f 456 430 431
f 456 431 458
f 443 469 467
f 443 467 442
f 458 431 434
f 458 434 460
f 446 471 469
f 446 469 443
f 1094 460 434
f 1094 434 1092
f 422 447 2
f 15 471 446
f 424 450 447
f 424 447 422
f 436 462 1095
f 436 1095 1093
f 426 452 450
f 426 450 424
f 436 437 463
f 436 463 462
f 428 454 452
f 428 452 426
f 447 473 2
f 15 498 471
f 450 475 473
f 450 473 447
f 462 488 1096
f 462 1096 1095
f 452 478 475
f 452 475 450
f 462 463 490
f 462 490 488
f 454 479 478
f 454 478 452
f 490 463 465
f 490 465 492
f 479 454 456
f 479 456 482
f 467 494 492
f 467 492 465
f 482 456 458
f 482 458 484
f 469 496 494
f 469 494 467
f 484 458 460
f 484 460 485
f 471 498 496
f 471 496 469
f 1097 485 460
f 1097 460 1094
f 505 479 482
f 505 482 508
f 517 492 494
f 517 494 519
f 508 482 484
f 508 484 509
f 519 494 496
f 519 496 521
f 509 484 485
f 509 485 512
f 498 523 521
f 498 521 496
f 1098 512 485
f 1098 485 1097
f 473 499 2
f 15 523 498
f 475 502 499
f 475 499 473
f 488 513 1099
f 488 1099 1096
f 478 503 502
f 478 502 475
f 488 490 515
f 488 515 513
f 479 505 503
f 479 503 478
f 515 490 492
f 515 492 517
f 1100 1101 541
f 541 982 983
f 983 981 1100
f 541 983 1100
f 502 527 526
f 502 526 499
f 513 542 1102
f 513 1102 1099
f 541 1101 1103
f 503 529 527
f 503 527 502
f 513 515 545
f 513 545 542
f 505 532 529
f 505 529 503
f 545 515 517
f 545 517 546
f 532 505 508
f 532 508 533
f 546 517 519
f 546 519 548
f 508 509 535
f 508 535 533
f 548 519 521
f 548 521 551
f 509 512 538
f 509 538 535
f 523 553 551
f 523 551 521
f 1100 981 984
f 984 985 538
f 538 512 1098
f 1104 1100 984
f 538 1098 1104
f 984 538 1104
f 499 526 2
f 15 553 523
f 568 546 548
f 568 548 570
f 986 988 562
f 562 533 535
f 535 987 986
f 986 562 535
f 570 548 551
f 570 551 572
f 553 574 572
f 553 572 551
f 526 554 2
f 15 574 553
f 527 556 554
f 527 554 526
f 529 559 556
f 529 556 527
f 989 990 542
f 542 545 567
f 567 991 989
f 989 542 567
f 532 561 559
f 532 559 529
f 567 545 546
f 567 546 568
f 561 532 533
f 561 533 562
f 556 578 577
f 556 577 554
f 559 581 578
f 559 578 556
f 561 583 581
f 561 581 559
f 993 992 567
f 567 568 587
f 587 994 993
f 567 587 993
f 995 997 583
f 583 561 562
f 562 996 995
f 995 583 562
f 587 568 570
f 587 570 589
f 589 570 572
f 589 572 591
f 574 592 591
f 574 591 572
f 554 577 2
f 15 592 574
f 591 608 607
f 591 607 589
f 592 611 608
f 592 608 591
f 577 594 2
f 15 611 592
f 578 596 594
f 578 594 577
f 581 598 596
f 581 596 578
f 583 600 598
f 583 598 581
f 998 994 587
f 605 1000 999
f 999 998 587
f 587 605 999
f 600 583 997
f 600 997 1001
f 1002 1003 600
f 600 1001 1002
f 589 607 605
f 589 605 587
f 598 617 614
f 598 614 596
f 600 618 617
f 600 617 598
f 1004 1000 605
f 605 622 1005
f 1004 605 1005
f 1007 1006 618
f 618 600 1003
f 618 1003 1007
f 607 624 622
f 607 622 605
f 608 627 624
f 608 624 607
f 611 628 627
f 611 627 608
f 594 613 2
f 15 628 611
f 596 614 613
f 596 613 594
f 647 624 627
f 647 627 649
f 628 651 649
f 628 649 627
f 613 631 2
f 15 651 628
f 614 633 631
f 614 631 613
f 617 635 633
f 617 633 614
f 618 637 635
f 618 635 617
f 1008 1005 622
f 622 645 643
f 643 1009 1008
f 622 643 1008
f 1011 1010 638
f 638 637 618
f 618 1006 1011
f 1011 638 618
f 645 622 624
f 645 624 647
f 1013 638 1012
f 638 1010 1012
f 1015 1014 643
f 643 672 670
f 670 1016 1015
f 1015 643 670
f 637 658 656
f 637 656 635
f 672 643 645
f 672 645 673
f 638 660 658
f 638 658 637
f 673 645 647
f 673 647 675
f 1018 1017 662
f 662 660 638
f 638 1013 1018
f 1018 662 638
f 675 647 649
f 675 649 677
f 1020 1021 664
f 662 1017 1019
f 1020 664 662
f 1020 662 1019
f 651 680 677
f 651 677 649
f 1022 664 1021
f 631 653 2
f 15 680 651
f 668 1023 1024
f 633 655 653
f 633 653 631
f 635 656 655
f 635 655 633
f 680 710 707
f 680 707 677
f 1026 1025 695
f 695 693 664
f 664 1022 1026
f 1026 695 664
f 653 682 2
f 15 710 680
f 1027 1023 668
f 668 697 695
f 695 1025 1027
f 1027 668 695
f 655 683 682
f 655 682 653
f 668 670 700
f 668 700 697
f 656 685 683
f 656 683 655
f 670 672 702
f 670 702 700
f 658 687 685
f 658 685 656
f 672 673 703
f 672 703 702
f 660 689 687
f 660 687 658
f 703 673 675
f 703 675 705
f 660 662 691
f 660 691 689
f 705 675 677
f 705 677 707
f 662 664 693
f 662 693 691
f 687 717 716
f 687 716 685
f 702 703 734
f 702 734 732
f 689 720 717
f 689 717 687
f 734 703 705
f 734 705 736
f 689 691 722
f 689 722 720
f 736 705 707
f 736 707 737
f 691 693 724
f 691 724 722
f 710 740 737
f 710 737 707
f 693 695 726
f 693 726 724
f 682 712 2
f 15 740 710
f 695 697 727
f 695 727 726
f 683 713 712
f 683 712 682
f 697 700 729
f 697 729 727
f 685 716 713
f 685 713 683
f 700 702 732
f 700 732 729
f 726 756 753
f 726 753 724
f 712 742 2
f 15 769 740
f 726 727 758
f 726 758 756
f 713 743 742
f 713 742 712
f 727 729 760
f 727 760 758
f 716 745 743
f 716 743 713
f 729 732 762
f 729 762 760
f 717 747 745
f 717 745 716
f 732 734 764
f 732 764 762
f 720 749 747
f 720 747 717
f 736 766 764
f 736 764 734
f 720 722 751
f 720 751 749
f 737 768 766
f 737 766 736
f 722 724 753
f 722 753 751
f 740 769 768
f 740 768 737
f 762 764 794
f 762 794 792
f 747 749 779
f 747 779 777
f 766 796 794
f 766 794 764
f 749 751 781
f 749 781 779
f 768 798 796
f 768 796 766
f 751 753 783
f 751 783 781
f 769 800 798
f 769 798 768
f 756 785 783
f 756 783 753
f 742 772 2
f 15 800 769
f 758 787 785
f 758 785 756
f 743 774 772
f 743 772 742
f 758 760 789
f 758 789 787
f 745 775 774
f 745 774 743
f 760 762 792
f 760 792 789
f 747 777 775
f 747 775 745
f 772 802 2
f 15 818 800
f 787 11 9
f 787 9 785
f 774 804 802
f 774 802 772
f 789 810 11
f 789 11 787
f 775 3 804
f 775 804 774
f 789 792 14
f 789 14 810
f 777 805 3
f 777 3 775
f 14 792 794
f 14 794 811
f 777 779 5
f 777 5 805
f 796 814 811
f 796 811 794
f 5 779 781
f 5 781 807
f 798 816 814
f 798 814 796
f 781 783 8
f 781 8 807
f 800 818 816
f 800 816 798
f 785 9 8
f 785 8 783
f 1028 1016 670
f 670 668 1024
f 1029 1028 670
f 670 1024 1029
f 1009 643 1030
f 643 1014 1030
f 991 567 1031
f 567 992 1031
f 996 562 1032
f 562 988 1032
f 541 1033 982
f 538 985 1034
f 1102 542 990
f 1105 1102 990
f 1033 541 1103
f 1035 1033 1103
f 1105 990 1036
f 1036 1035 1103
f 1036 1103 1105
f 1038 987 535
f 535 538 1034
f 1037 1038 535
f 535 1034 1037
f 277 973 1039
f 1078 277 1039
f 279 1077 1106
f 1078 1039 1040
f 977 279 1106
f 1106 1078 1040
f 1040 977 1106
f 962 253 1041
f 253 975 1041
f 942 178 1042
f 178 943 1042
f 1046 1045 148
f 148 150 1043
f 1044 1046 148
f 148 1043 1044
f 1043 150 936
f 153 1047 939
f 1049 1047 153
f 155 941 1048
f 1049 153 155
f 1049 155 1048
f 1050 950 175
f 175 145 148
f 148 1045 1050
f 175 148 1050
f 884 886 1027
f 884 1027 1025
f 938 931 840
f 840 839 935
f 840 935 938
f 1023 1027 886
f 886 885 887
f 887 1029 1024
f 1024 1023 886
f 886 887 1024
f 1047 1049 932
f 932 930 931
f 931 938 939
f 939 1047 932
f 932 931 939
f 887 889 1028
f 887 1028 1029
f 1048 934 932
f 1048 932 1049
f 1016 1028 889
f 889 888 1015
f 1016 889 1015
f 941 940 933
f 933 934 1048
f 941 933 1048
f 1014 1015 888
f 888 876 875
f 875 892 1030
f 1030 1014 888
f 888 875 1030
f 942 1042 925
f 925 836 837
f 837 933 940
f 940 942 925
f 925 837 940
f 1009 1030 892
f 892 890 1008
f 892 1008 1009
f 943 944 924
f 924 925 1042
f 924 1042 943
f 1005 1008 890
f 890 891 894
f 894 1004 1005
f 1005 890 894
f 945 951 926
f 926 923 924
f 924 944 945
f 926 924 945
f 1000 1004 894
f 894 893 900
f 900 999 1000
f 1000 894 900
f 927 926 951
f 927 951 953
f 900 899 998
f 900 998 999
f 957 922 921
f 957 921 927
f 953 952 957
f 957 927 953
f 998 899 896
f 896 897 993
f 994 998 896
f 896 993 994
f 958 961 919
f 919 920 922
f 922 957 958
f 919 922 958
f 992 993 897
f 897 898 1031
f 992 897 1031
f 962 1041 918
f 918 919 961
f 962 918 961
f 991 1031 898
f 898 895 909
f 909 910 989
f 989 991 898
f 898 909 989
f 976 916 834
f 834 835 918
f 918 1041 975
f 975 976 834
f 834 918 975
f 990 989 910
f 910 911 1036
f 990 910 1036
f 977 1040 917
f 917 916 976
f 977 917 976
f 1036 911 908
f 1036 908 1035
f 917 1040 1039
f 917 1039 915
f 1033 1035 908
f 908 905 904
f 904 983 982
f 982 1033 908
f 908 904 982
f 974 980 863
f 863 864 915
f 915 1039 973
f 973 974 863
f 863 915 973
f 983 904 903
f 983 903 981
f 980 979 853
f 853 852 863
f 853 863 980
f 907 984 981
f 907 981 903
f 978 862 855
f 855 853 979
f 855 979 978
f 985 984 907
f 907 906 913
f 913 1037 1034
f 1034 985 907
f 907 913 1034
f 970 971 859
f 859 854 862
f 862 978 972
f 972 970 859
f 859 862 972
f 914 1038 1037
f 914 1037 913
f 969 861 850
f 850 859 971
f 850 971 969
f 987 1038 914
f 914 912 986
f 987 914 986
f 967 968 860
f 860 851 861
f 861 969 967
f 967 860 861
f 986 912 866
f 866 865 902
f 902 1032 988
f 988 986 866
f 866 902 988
f 965 966 847
f 847 860 968
f 965 847 968
f 996 1032 902
f 902 901 995
f 996 902 995
f 963 964 848
f 848 847 966
f 963 848 966
f 995 901 868
f 868 867 1001
f 997 995 868
f 868 1001 997
f 960 959 849
f 849 848 964
f 960 849 964
f 867 869 1002
f 867 1002 1001
f 858 849 959
f 955 956 858
f 858 959 955
f 1003 1002 869
f 869 870 871
f 871 1007 1003
f 869 871 1003
f 858 956 954
f 858 954 844
f 1006 1007 871
f 871 872 877
f 877 1011 1006
f 1006 871 877
f 948 946 845
f 845 844 954
f 948 845 954
f 1010 1011 877
f 877 878 1012
f 1010 877 1012
f 947 949 846
f 846 845 946
f 947 846 946
f 1012 878 874
f 874 873 882
f 882 1018 1013
f 1013 1012 874
f 874 882 1013
f 950 1050 856
f 856 846 949
f 856 949 950
f 1017 1018 882
f 882 879 1019
f 1017 882 1019
f 1045 1046 928
f 928 843 856
f 856 1050 1045
f 1045 928 856
f 1019 879 880
f 1019 880 1020
f 1046 1044 857
f 857 842 928
f 857 928 1046
f 1021 1020 880
f 880 881 883
f 883 1026 1022
f 1022 1021 880
f 880 883 1022
f 936 937 929
f 929 838 857
f 857 1044 1043
f 1043 936 929
f 929 857 1043
f 1026 883 884
f 1026 884 1025
f 841 929 937
f 937 935 839
f 937 839 841
f 1100 1104 1076
f 1076 1073 1074
f 1074 1075 1105
f 1074 1105 1103
f 1100 1076 1074
f 1074 1103 1101
f 1074 1101 1100
f 1078 1106 1051
f 1051 1052 1055
f 1055 1054 1082
f 1055 1082 1081
f 1078 1051 1055
f 1055 1081 1079
f 1055 1079 1078
f 1102 1105 1075
f 1075 1072 1069
f 1069 1068 1066
f 1066 1064 1062
f 1062 1060 1058
f 1058 1053 1051
f 1051 1106 1077
f 1051 1077 1080
f 1062 1058 1051
f 1069 1066 1062
f 1102 1075 1069
f 1099 1102 1069
f 1062 1051 1080
f 1062 1080 1085
f 1096 1099 1069
f 1095 1096 1069
f 1062 1085 1087
f 1062 1087 1089
f 1095 1069 1062
f 1093 1095 1062
f 1062 1089 1091
f 1062 1091 1093
f 1082 1054 1056
f 1056 1057 1059
f 1059 1061 1063
f 1063 1065 1067
f 1067 1070 1071
f 1071 1076 1104
f 1071 1104 1098
f 1063 1067 1071
f 1056 1059 1063
f 1083 1082 1056
f 1084 1083 1056
f 1071 1098 1097
f 1071 1097 1094
f 1086 1084 1056
f 1086 1056 1063
f 1063 1071 1094
f 1063 1094 1092
f 1088 1086 1063
f 1063 1092 1090
f 1063 1090 1088
